<?xml version="1.0" encoding="UTF-8"?>
<svg version="1.1" xmlns="http://www.w3.org/2000/svg" width="293" height="285">
<path d="M0 0 C96.69 0 193.38 0 293 0 C293 94.05 293 188.1 293 285 C196.31 285 99.62 285 0 285 C0 190.95 0 96.9 0 0 Z " fill="#FEFEFE" transform="translate(0,0)"/>
<path d="M0 0 C6.51899158 1.80974824 12.93884411 3.913471 19.36083984 6.03857422 C21.15242284 6.62572209 22.94774843 7.20156928 24.74658203 7.76611328 C27.34943116 8.58418555 29.93781703 9.4384432 32.52612305 10.30126953 C33.33131882 10.54636261 34.13651459 10.79145569 34.96611023 11.04397583 C37.13785252 11.7922386 38.95517489 12.50653614 40.8581543 13.79345703 C43.01505435 18.5111204 43.20115535 23.30571302 43.4909668 28.44970703 C43.53252899 29.15567017 43.57409119 29.8616333 43.61691284 30.58898926 C43.74638536 32.82346323 43.86470413 35.05837481 43.9831543 37.29345703 C44.06971343 38.7921944 44.15694743 40.29089296 44.24487305 41.78955078 C44.60649541 48.13034089 44.90641293 54.43974628 44.8581543 60.79345703 C44.32561035 61.08478516 43.79306641 61.37611328 43.24438477 61.67626953 C40.73991382 63.04734207 38.23640126 64.42015105 35.7331543 65.79345703 C34.82839355 66.28950439 33.92363281 66.78555176 32.99145508 67.29663086 C26.40919127 70.9151864 19.89026685 74.62754625 13.4128418 78.43017578 C10.8581543 79.79345703 10.8581543 79.79345703 8.8581543 79.79345703 C8.56844655 75.31377401 8.28385866 70.83380123 8.00366211 66.35351562 C7.90800479 64.83487544 7.81103803 63.31631706 7.71264648 61.79785156 C7.12957648 52.78406524 6.70073101 43.83217763 6.8581543 34.79345703 C6.07182617 34.69806641 5.28549805 34.60267578 4.4753418 34.50439453 C-0.20293066 33.58490686 -4.53725482 32.02924602 -9.0168457 30.41845703 C-9.87665039 30.11423828 -10.73645508 29.81001953 -11.62231445 29.49658203 C-15.58254355 28.09037018 -19.5300636 26.65543275 -23.4621582 25.17236328 C-26.34266509 24.09293767 -29.21993763 23.06470812 -32.1418457 22.10595703 C-32.9049707 21.85458984 -33.6680957 21.60322266 -34.4543457 21.34423828 C-35.0112207 21.16248047 -35.5680957 20.98072266 -36.1418457 20.79345703 C-33.48520102 17.74782042 -30.32794843 16.04371754 -26.8293457 14.07080078 C-26.21921631 13.72465225 -25.60908691 13.37850372 -24.98046875 13.02186584 C-23.03683288 11.92027436 -21.08952393 10.82538275 -19.1418457 9.73095703 C-17.19492828 8.63166567 -15.24879819 7.53100097 -13.30322266 6.42933655 C-11.53859017 5.43096362 -9.77190846 4.43621532 -8.00512695 3.44165039 C-1.73547456 -0.16735569 -1.73547456 -0.16735569 0 0 Z " fill="#2578C0" transform="translate(142.141845703125,101.20654296875)"/>
<path d="M0 0 C1.89266412 0.65384308 3.78539087 1.30751146 5.67926025 1.95785522 C8.44025905 2.9120694 11.19225023 3.8908364 13.9440918 4.87109375 C16.08829489 5.63417997 18.23448114 6.39149395 20.38085938 7.1484375 C21.7449129 7.632471 23.10884972 8.11683352 24.47265625 8.6015625 C26.31742554 9.25632568 26.31742554 9.25632568 28.19946289 9.92431641 C31 11 31 11 32 12 C32.23203258 14.54549464 32.40405805 17.06980262 32.53515625 19.62109375 C32.59962196 20.78198265 32.59962196 20.78198265 32.66539001 21.96632385 C32.7558125 23.61308847 32.84392177 25.25998144 32.92993164 26.90698242 C33.06032642 29.39600989 33.1984692 31.88451058 33.33789062 34.37304688 C33.76934429 42.25742338 34.12053942 50.10065002 34 58 C32.76697144 58.70346558 32.76697144 58.70346558 31.5090332 59.42114258 C28.44302692 61.17070338 25.37730368 62.92075815 22.31176758 64.67114258 C20.98798654 65.42687299 19.66409483 66.18240957 18.34008789 66.93774414 C16.43085675 68.02698959 14.5220321 69.11694443 12.61328125 70.20703125 C12.02662186 70.54152786 11.43996246 70.87602448 10.83552551 71.22065735 C8.26731195 72.68815849 5.72256643 74.17283424 3.21166992 75.73706055 C1 77 1 77 -1 77 C-1.84734424 71.66452474 -2.27339464 66.39753446 -2.53515625 61.00390625 C-2.57813339 60.17036118 -2.62111053 59.3368161 -2.66539001 58.47801208 C-2.80074183 55.83964991 -2.93169065 53.2010909 -3.0625 50.5625 C-3.15400502 48.76365701 -3.24579899 46.96482868 -3.33789062 45.16601562 C-3.56193561 40.77750638 -3.78203455 36.38881523 -4 32 C-4.54060059 31.84942139 -5.08120117 31.69884277 -5.63818359 31.54370117 C-13.77827885 29.19498791 -21.68733493 26.25632608 -29.625 23.3125 C-31.02463767 22.79594774 -32.42437658 22.27966971 -33.82421875 21.76367188 C-37.21731725 20.51226966 -40.60903611 19.25717674 -44 18 C-44 17.34 -44 16.68 -44 16 C-43.46745605 15.70867187 -42.93491211 15.41734375 -42.38623047 15.1171875 C-40.78999227 14.24332695 -39.19434185 13.36839228 -37.59912109 12.49267578 C-35.77347468 11.4923171 -33.94564438 10.49593435 -32.11572266 9.50341797 C-27.9653842 7.24072684 -23.86542242 4.96827207 -19.90625 2.3828125 C-19.30184082 1.99867188 -18.69743164 1.61453125 -18.07470703 1.21875 C-16.47991838 0.19251427 -14.90700855 -0.86749808 -13.3359375 -1.9296875 C-8.24617517 -3.56270258 -4.87826419 -1.83152475 0 0 Z " fill="#2578C0" transform="translate(47,152)"/>
<path d="M0 0 C1.97075428 0.61670934 3.94742018 1.21164744 5.92483521 1.80662537 C8.7715227 2.66658147 11.6088897 3.55535914 14.44677734 4.44384766 C16.65476719 5.1343085 18.86443288 5.81921814 21.07421875 6.50390625 C22.47927022 6.94237663 23.88422205 7.38116647 25.2890625 7.8203125 C25.94935455 8.02447784 26.60964661 8.22864319 27.28994751 8.43899536 C31.88540661 9.88540661 31.88540661 9.88540661 33 11 C33.23074922 13.19695251 33.39619796 15.40080639 33.53515625 17.60546875 C33.59962196 18.61895134 33.59962196 18.61895134 33.66539001 19.65290833 C33.7558582 21.09455431 33.84396386 22.53635013 33.92993164 23.97827148 C34.0592762 26.13377594 34.19794665 28.28852051 34.33789062 30.44335938 C34.89373618 39.31041942 35.11852383 48.11246836 35 57 C34.28457031 57.39791748 33.56914062 57.79583496 32.83203125 58.20581055 C30.13986267 59.70448298 27.44874861 61.20502805 24.75830078 62.70678711 C23.03627108 63.66726938 21.31306956 64.62564974 19.58984375 65.58398438 C14.77657292 68.27209761 10.0004616 70.95492877 5.375 73.95703125 C2 76 2 76 -1 76 C-1.66 61.15 -2.32 46.3 -3 31 C-6.96 30.01 -10.92 29.02 -15 28 C-17.30690563 27.23183414 -19.60235727 26.42678433 -21.875 25.5625 C-27.93448053 23.32224662 -33.98897959 21.53989887 -40.234375 19.89453125 C-43 19 -43 19 -45 17 C-43.97003906 16.39414063 -42.94007813 15.78828125 -41.87890625 15.1640625 C-40.85917725 14.56307739 -40.85917725 14.56307739 -39.81884766 13.94995117 C-38.29906395 13.05751813 -36.77653539 12.16974499 -35.25146484 11.28637695 C-31.2493773 8.95941959 -27.32081656 6.57861102 -23.47265625 4.00390625 C-22.74296631 3.53194824 -22.01327637 3.05999023 -21.26147461 2.57373047 C-19.87251813 1.67251976 -18.50065569 0.74419778 -17.15063477 -0.21435547 C-10.90615047 -4.18294394 -6.63282585 -2.3501145 0 0 Z " fill="#2678C0" transform="translate(254,54)"/>
<path d="M0 0 C1.83121218 0.6351788 3.6632488 1.26798564 5.49609375 1.8984375 C6.38409668 2.20491211 7.27209961 2.51138672 8.18701172 2.82714844 C13.6457115 4.65954109 19.19284073 6.18379808 24.75 7.6875 C24.77505615 8.3266333 24.8001123 8.9657666 24.82592773 9.62426758 C24.94357147 12.58296745 25.06551778 15.54147594 25.1875 18.5 C25.22681641 19.50482422 25.26613281 20.50964844 25.30664062 21.54492188 C25.63612226 29.42713643 26.03967945 37.31052477 27.3046875 45.10546875 C27.67410297 48.29956108 27.66257126 50.5917439 26.75 53.6875 C23.59051309 56.77842662 19.95396161 58.58291062 16.01171875 60.52734375 C13.37867179 61.87797406 10.83542463 63.34939887 8.28125 64.84375 C0.72544058 69.26275956 0.72544058 69.26275956 -2.91796875 71.34375 C-4.09782349 72.02147461 -4.09782349 72.02147461 -5.30151367 72.71289062 C-7.25 73.6875 -7.25 73.6875 -9.25 73.6875 C-9.53913907 69.04704866 -9.82377114 64.40634907 -10.10449219 59.76538086 C-10.20030303 58.19141447 -10.29727814 56.61751845 -10.39550781 55.04370117 C-10.94354886 46.24987929 -11.42369881 37.50392068 -11.25 28.6875 C-11.90943604 28.51879395 -12.56887207 28.35008789 -13.24829102 28.17626953 C-20.12453852 26.40052364 -26.80935024 24.18301339 -33.5246582 21.88916016 C-39.0079514 20.03919306 -44.49675276 18.54004673 -50.16015625 17.328125 C-50.84980469 17.11671875 -51.53945312 16.9053125 -52.25 16.6875 C-52.58 16.0275 -52.91 15.3675 -53.25 14.6875 C-52.12464844 14.07003906 -50.99929687 13.45257813 -49.83984375 12.81640625 C-48.2890377 11.96098245 -46.73825845 11.10551008 -45.1875 10.25 C-44.37345703 9.80422607 -43.55941406 9.35845215 -42.72070312 8.89916992 C-38.75207048 6.70799287 -34.85363852 4.47807108 -31.06640625 1.984375 C-30.42002197 1.56599365 -29.7736377 1.1476123 -29.10766602 0.71655273 C-27.90742061 -0.06946683 -26.72032703 -0.87612031 -25.55053711 -1.70678711 C-17.46938602 -6.94546425 -8.27363457 -2.97028044 0 0 Z " fill="#2678C0" transform="translate(159.25,207.3125)"/>
<path d="M0 0 C1.35386382 0.49067605 2.70567765 0.98703589 4.05566406 1.48828125 C5.13451874 1.88213013 5.13451874 1.88213013 6.23516846 2.28393555 C8.51570115 3.11799718 10.79344138 3.95941843 13.07128906 4.80078125 C14.61669575 5.36633985 16.16226715 5.93144859 17.70800781 6.49609375 C19.17820625 7.03475698 20.64826343 7.57380591 22.11816406 8.11328125 C22.81085388 8.36746826 23.5035437 8.62165527 24.21722412 8.88354492 C29.08356141 10.68191743 29.08356141 10.68191743 31.32128906 11.80078125 C31.71649483 14.36462586 31.98275179 16.84043367 32.17285156 19.421875 C32.26848892 20.5827639 32.26848892 20.5827639 32.36605835 21.7671051 C32.4998169 23.41363381 32.62895903 25.06054289 32.75390625 26.70776367 C32.94318037 29.19739096 33.14652268 31.68553648 33.35253906 34.17382812 C33.61114738 37.32956523 33.83366876 40.48469536 34.02783203 43.64501953 C34.18157188 46.12526752 34.42536803 48.47399292 34.80615234 50.93701172 C35.13128878 53.61595281 35.26260548 55.26897518 34.32128906 57.80078125 C30.93072435 60.98778559 27.0762179 62.95918775 22.94628906 65.05078125 C20.81330465 66.20150431 18.68049044 67.35254293 16.54785156 68.50390625 C15.50532227 69.04853516 14.46279297 69.59316406 13.38867188 70.15429688 C9.58311598 72.19701169 5.9186048 74.43175745 2.26025391 76.72558594 C0.32128906 77.80078125 0.32128906 77.80078125 -1.67871094 77.80078125 C-1.96948852 73.50021167 -2.25398221 69.19928093 -2.53320312 64.89794922 C-2.62857413 63.44146108 -2.72552249 61.98507518 -2.82421875 60.52880859 C-3.47328249 50.93193765 -3.81573054 41.42450494 -3.67871094 31.80078125 C-4.84273437 31.58679688 -6.00675781 31.3728125 -7.20605469 31.15234375 C-14.44231133 29.54428672 -21.31526037 26.77168285 -28.24121094 24.17578125 C-29.64530893 23.65441199 -31.04960443 23.13357431 -32.45410156 22.61328125 C-35.86460337 21.34856795 -39.27237677 20.07668351 -42.67871094 18.80078125 C-42.67871094 18.14078125 -42.67871094 17.48078125 -42.67871094 16.80078125 C-41.85669189 16.3318042 -41.03467285 15.86282715 -40.18774414 15.37963867 C-37.12173785 13.63007787 -34.05601461 11.8800231 -30.99047852 10.12963867 C-29.66669748 9.37390826 -28.34280577 8.61837168 -27.01879883 7.86303711 C-25.10956768 6.77379166 -23.20074304 5.68383682 -21.29199219 4.59375 C-20.4120031 4.09200508 -20.4120031 4.09200508 -19.51423645 3.5801239 C-16.97923023 2.13159775 -14.52439387 0.69137747 -12.14038086 -0.9987793 C-7.80604523 -3.11242884 -4.39868477 -1.43392219 0 0 Z " fill="#2579C0" transform="translate(49.6787109375,55.19921875)"/>
<path d="M0 0 C0.79198288 0.28713364 1.58396576 0.57426727 2.39994812 0.87010193 C4.91760436 1.78374783 7.43342062 2.70234534 9.94921875 3.62109375 C11.66068807 4.24316663 13.37227536 4.86491507 15.08398438 5.48632812 C19.26960498 7.00666171 23.45358296 8.53143729 27.63671875 10.05859375 C29.04086297 25.76372274 29.93803877 41.28951289 29.63671875 57.05859375 C28.92128906 57.45651123 28.20585937 57.85442871 27.46875 58.2644043 C24.77658142 59.76307673 22.08546736 61.2636218 19.39501953 62.76538086 C17.67298983 63.72586313 15.94978831 64.68424349 14.2265625 65.64257812 C9.40021956 68.33799187 4.60452033 71.03240168 -0.05078125 74.015625 C-3.36328125 76.05859375 -3.36328125 76.05859375 -5.36328125 76.05859375 C-5.68129881 72.30904168 -5.99154715 68.5588796 -6.30078125 64.80859375 C-6.43129883 63.27138672 -6.43129883 63.27138672 -6.56445312 61.703125 C-7.40049066 51.48488841 -7.85031825 41.31785373 -8.36328125 31.05859375 C-21.23328125 26.43859375 -34.10328125 21.81859375 -47.36328125 17.05859375 C-44.65578283 14.35109533 -42.61359473 12.9228203 -39.3203125 11.09765625 C-38.32837891 10.54335937 -37.33644531 9.9890625 -36.31445312 9.41796875 C-35.27869141 8.845625 -34.24292969 8.27328125 -33.17578125 7.68359375 C-31.13964214 6.55254882 -29.10446752 5.41976564 -27.0703125 4.28515625 C-25.60585693 3.47353027 -25.60585693 3.47353027 -24.11181641 2.64550781 C-21.01996906 0.86037655 -18.0833421 -1.09337138 -15.1862793 -3.17822266 C-10.56247122 -5.11394303 -4.4563836 -1.63357619 0 0 Z " fill="#2579C0" transform="translate(261.36328125,154.94140625)"/>
<path d="M0 0 C0.72256485 0.24274155 1.4451297 0.48548309 2.18959045 0.73558044 C4.47340444 1.50425302 6.75427514 2.28126715 9.03515625 3.05859375 C10.59291128 3.58454057 12.15085237 4.10993665 13.70898438 4.63476562 C17.50738878 5.91551883 21.3031786 7.20375555 25.09765625 8.49609375 C26.03195451 20.67054676 26.03195451 20.67054676 26.33398438 25.95703125 C26.80669272 34.39323426 26.80669272 34.39323426 28.00390625 42.75 C28.70934915 47.1434712 28.84004101 50.2685181 27.09765625 54.49609375 C21.54840178 59.66936016 14.59818976 62.90155756 7.82080078 66.16259766 C4.34589985 67.86422119 1.08926263 69.79722401 -2.21484375 71.80859375 C-6.77643576 74.49609375 -6.77643576 74.49609375 -7.90234375 74.49609375 C-8.71653238 70.05746625 -9.15639819 65.69422472 -9.4375 61.19140625 C-9.48047714 60.50859589 -9.52345428 59.82578552 -9.56773376 59.12228394 C-9.65742382 57.68529443 -9.74558003 56.24820844 -9.83227539 54.81103516 C-9.964053 52.63415641 -10.1017769 50.45771295 -10.24023438 48.28125 C-10.32717945 46.8763241 -10.41377918 45.47137678 -10.5 44.06640625 C-10.57742432 42.80586426 -10.65484863 41.54532227 -10.73461914 40.24658203 C-10.91023481 36.31964177 -10.93036546 32.42620702 -10.90234375 28.49609375 C-12.09730469 28.26148437 -13.29226562 28.026875 -14.5234375 27.78515625 C-21.15986771 26.31039398 -27.53605833 24.05845296 -33.96484375 21.87109375 C-35.21201172 21.45085938 -36.45917969 21.030625 -37.74414062 20.59765625 C-40.7982884 19.56790528 -43.8509456 18.53395824 -46.90234375 17.49609375 C-46.90234375 16.50609375 -46.90234375 15.51609375 -46.90234375 14.49609375 C-46.35932617 14.19952881 -45.81630859 13.90296387 -45.25683594 13.59741211 C-43.63712835 12.71198796 -42.01795234 11.82559103 -40.39916992 10.93847656 C-38.56189453 9.93190243 -36.72350617 8.9273572 -34.8840332 7.92480469 C-30.91879583 5.75359074 -26.97154997 3.58664158 -23.1484375 1.171875 C-21.63443359 0.21861328 -21.63443359 0.21861328 -20.08984375 -0.75390625 C-19.23777344 -1.3159375 -18.38570312 -1.87796875 -17.5078125 -2.45703125 C-11.81556688 -4.74417042 -5.54983562 -1.90564312 0 0 Z " fill="#2678C0" transform="translate(158.90234375,7.50390625)"/>
</svg>
