<?xml version="1.0" encoding="UTF-8"?>
<svg version="1.1" xmlns="http://www.w3.org/2000/svg" width="293" height="285">
<path d="M0 0 C1.87424144 0.63154589 3.74859745 1.26289919 5.62814331 1.878479 C8.18046334 2.71733379 10.72033485 3.59091506 13.26098633 4.46435547 C15.22221828 5.13690567 17.18625284 5.8008347 19.15039062 6.46484375 C20.39369141 6.89152344 21.63699219 7.31820312 22.91796875 7.7578125 C24.03969482 8.1408252 25.1614209 8.52383789 26.31713867 8.91845703 C29 10 29 10 31 12 C31.41064453 14.72705078 31.41064453 14.72705078 31.6328125 18.1953125 C31.71813232 19.46149414 31.80345215 20.72767578 31.89135742 22.03222656 C32.17292659 26.82012758 32.42332855 31.60998741 32.65834045 36.40039062 C32.84788664 40.03625924 33.17277889 43.59705717 33.72265625 47.1953125 C34.24136035 51.11961775 34.37512204 54.1970763 33 58 C28.98400991 62.13895708 23.6245444 64.41276104 18.46484375 66.80273438 C14.33876824 68.80692161 10.47369079 71.23560262 6.5625 73.625 C-0.68605398 78 -0.68605398 78 -3 78 C-4.51041365 74.9791727 -4.3588389 71.78694061 -4.53515625 68.46484375 C-4.57813339 67.71215714 -4.62111053 66.95947052 -4.66539001 66.18397522 C-4.75567297 64.58606507 -4.84379287 62.98803148 -4.92993164 61.38989258 C-5.06067871 58.97119211 -5.19869606 56.552993 -5.33789062 54.13476562 C-5.75362355 46.75285235 -6.12826458 39.39659065 -6 32 C-7.0350769 31.76216797 -7.0350769 31.76216797 -8.09106445 31.51953125 C-15.95072548 29.64197798 -23.6027025 27.2916524 -31.24047852 24.66601562 C-33.21954392 23.98903877 -35.20420475 23.33046749 -37.18945312 22.671875 C-38.45350189 22.24068663 -39.71718892 21.808436 -40.98046875 21.375 C-42.68046021 20.79878906 -42.68046021 20.79878906 -44.41479492 20.2109375 C-45.69447144 19.61152344 -45.69447144 19.61152344 -47 19 C-47.33 18.01 -47.66 17.02 -48 16 C-44.46255395 13.95435472 -40.92452372 11.90972373 -37.38598633 9.8659668 C-36.18628732 9.17287519 -34.98673882 8.479523 -33.78735352 7.78588867 C-32.91904907 7.28375854 -32.91904907 7.28375854 -32.03320312 6.77148438 C-31.17231583 6.27272293 -31.17231583 6.27272293 -30.29403687 5.7638855 C-28.57867333 4.77659169 -26.8540412 3.80545926 -25.12939453 2.83447266 C-22.06245129 1.10557391 -22.06245129 1.10557391 -19.60107422 -0.74462891 C-12.59812325 -5.64109222 -7.46785504 -2.93346842 0 0 Z " fill="#2377BF" transform="translate(154,104)"/>
<path d="M0 0 C0.75563232 0.27263672 1.51126465 0.54527344 2.28979492 0.82617188 C3.15942871 1.1278125 4.0290625 1.42945313 4.92504883 1.74023438 C5.86396973 2.08828125 6.80289063 2.43632812 7.77026367 2.79492188 C8.77234863 3.14296875 9.77443359 3.49101562 10.80688477 3.84960938 C14.0331994 4.9733651 17.24604095 6.13016785 20.45776367 7.29492188 C21.54637695 7.68550781 22.63499023 8.07609375 23.7565918 8.47851562 C29.17039539 10.43340884 34.51364016 12.44861782 39.77026367 14.79492188 C41.02133836 26.3461066 41.97366441 37.87161685 42.45776367 49.48242188 C42.50602295 50.57482178 42.55428223 51.66722168 42.60400391 52.79272461 C42.64211182 53.80794189 42.68021973 54.82315918 42.71948242 55.86914062 C42.75388428 56.77237061 42.78828613 57.67560059 42.82373047 58.60620117 C42.77026367 60.79492188 42.77026367 60.79492188 41.77026367 62.79492188 C40.20053356 63.74884755 38.58926753 64.63488649 36.96166992 65.48632812 C32.84320124 67.67711633 28.77142486 69.92081175 24.73510742 72.25976562 C23.74188477 72.83146484 22.74866211 73.40316406 21.7253418 73.9921875 C19.67540062 75.17438659 17.62862492 76.3620882 15.5847168 77.5546875 C14.6030957 78.11736328 13.62147461 78.68003906 12.61010742 79.25976562 C11.72701904 79.77144287 10.84393066 80.28312012 9.93408203 80.81030273 C8.86299194 81.29768921 8.86299194 81.29768921 7.77026367 81.79492188 C6.78026367 81.29992187 6.78026367 81.29992187 5.77026367 80.79492188 C5.37548828 78.7956543 5.37548828 78.7956543 5.17260742 76.15039062 C5.09381348 75.17199219 5.01501953 74.19359375 4.93383789 73.18554688 C4.8592334 72.12851563 4.78462891 71.07148438 4.70776367 69.98242188 C4.6254248 68.91121094 4.54308594 67.84 4.45825195 66.73632812 C3.71423132 56.76497828 3.19018551 46.7846413 2.77026367 36.79492188 C1.8427832 36.4471167 0.91530273 36.09931152 -0.0402832 35.7409668 C-12.43676758 31.09228516 -24.83325195 26.44360352 -37.22973633 21.79492188 C-33.88884635 18.22596657 -30.73217091 15.69307786 -26.44848633 13.34960938 C-25.35922852 12.74761719 -24.2699707 12.145625 -23.14770508 11.52539062 C-22.01977539 10.91308594 -20.8918457 10.30078125 -19.72973633 9.66992188 C-17.48988282 8.4386424 -15.25028985 7.20688883 -13.01098633 5.97460938 C-12.02163086 5.43562012 -11.03227539 4.89663086 -10.01293945 4.34130859 C-7.21266309 2.84154811 -7.21266309 2.84154811 -4.65087891 1.03173828 C-2.22973633 -0.20507812 -2.22973633 -0.20507812 0 0 Z " fill="#2377C0" transform="translate(39.229736328125,148.205078125)"/>
<path d="M0 0 C1.9163699 0.60243708 3.83277508 1.20476642 5.75001526 1.8044281 C8.49341314 2.66834903 11.22910006 3.55528482 13.96459961 4.44384766 C16.08931913 5.13370771 18.21545726 5.81905794 20.34179688 6.50390625 C30.71883766 9.85941883 30.71883766 9.85941883 33 11 C34.36655862 14.67498802 34.32070491 18.66777679 34.53515625 22.546875 C34.59962196 23.64192352 34.59962196 23.64192352 34.66539001 24.75909424 C34.75539281 26.30218158 34.84353167 27.84537861 34.92993164 29.38867188 C35.06127379 31.72815861 35.19909551 34.06719488 35.33789062 36.40625 C35.42486704 37.91143597 35.51146745 39.41664372 35.59765625 40.921875 C35.63826675 41.611745 35.67887726 42.30161499 35.72071838 43.01239014 C35.8307975 45.00739538 35.91557329 47.00374464 36 49 C36.06613495 49.70660767 36.1322699 50.41321533 36.20040894 51.14123535 C36.33764648 53.25488281 36.33764648 53.25488281 36 57 C33.86132812 59.29077148 33.86132812 59.29077148 31 61 C30.08154297 61.55824463 29.16308594 62.11648926 28.21679688 62.69165039 C26.73276367 63.51137329 26.73276367 63.51137329 25.21875 64.34765625 C24.12949219 64.95287109 23.04023438 65.55808594 21.91796875 66.18164062 C20.79003906 66.80232422 19.66210938 67.42300781 18.5 68.0625 C16.2600792 69.30277615 14.02048382 70.54364022 11.78125 71.78515625 C10.79189453 72.33051025 9.80253906 72.87586426 8.78320312 73.43774414 C6.91941677 74.48391685 5.07888418 75.57257441 3.26367188 76.70092773 C1 78 1 78 -1 78 C-1.86286971 72.59205103 -2.2769024 67.25290552 -2.53515625 61.78515625 C-2.57813339 60.92941513 -2.62111053 60.07367401 -2.66539001 59.19200134 C-2.80078568 56.48230761 -2.93171284 53.77241968 -3.0625 51.0625 C-3.15400077 49.2154801 -3.24579466 47.36847469 -3.33789062 45.52148438 C-3.56198451 41.01448351 -3.78207353 36.50730312 -4 32 C-4.68352539 31.84362061 -5.36705078 31.68724121 -6.07128906 31.52612305 C-14.8062221 29.44379034 -23.25798248 26.69737252 -31.75 23.8125 C-33.14048159 23.34397522 -34.53110588 22.87587373 -35.921875 22.40820312 C-39.28290376 21.27699426 -42.64198416 20.14012633 -46 19 C-43.53733611 16.39951448 -41.28831732 14.38908349 -38.12890625 12.703125 C-37.02977905 12.10600708 -37.02977905 12.10600708 -35.90844727 11.49682617 C-34.74720337 10.87964722 -34.74720337 10.87964722 -33.5625 10.25 C-26.76901085 6.63600047 -26.76901085 6.63600047 -20.3125 2.46484375 C-19.24 1.71332031 -18.1675 0.96179687 -17.0625 0.1875 C-16.14597656 -0.49957031 -15.22945312 -1.18664063 -14.28515625 -1.89453125 C-9.05560406 -3.65429733 -5.09007964 -1.72784628 0 0 Z " fill="#2477BF" transform="translate(254,53)"/>
<path d="M0 0 C1.21945313 0.42684082 2.43890625 0.85368164 3.6953125 1.29345703 C7.24621699 2.55874324 10.77351227 3.88049392 14.29589844 5.22290039 C16.52024261 6.07021094 18.74805786 6.9078413 20.9765625 7.74414062 C22.39083449 8.27809128 23.80490474 8.81257667 25.21875 9.34765625 C25.88531616 9.59870621 26.55188232 9.84975616 27.23864746 10.1084137 C31.88363526 11.88363526 31.88363526 11.88363526 33 13 C33.95443522 18.38791232 34.27728803 23.75525899 34.53515625 29.21484375 C34.59962196 30.49845543 34.59962196 30.49845543 34.66539001 31.80799866 C34.80078568 34.51769239 34.93171284 37.22758032 35.0625 39.9375 C35.15400077 41.7845199 35.24579466 43.63152531 35.33789062 45.47851562 C35.56198451 49.98551649 35.78207353 54.49269688 36 59 C29.11770885 63.04927166 29.11770885 63.04927166 26.07397461 64.83496094 C22.10069252 67.16666779 18.13776213 69.51359441 14.19140625 71.890625 C13.42562256 72.34904785 12.65983887 72.8074707 11.87084961 73.27978516 C10.39324699 74.16483684 8.91869603 75.05500679 7.44750977 75.95068359 C2.33729722 79 2.33729722 79 -1 79 C-2.61253638 75.77492724 -2.34367796 72.21867742 -2.5 68.66796875 C-2.54060547 67.83920731 -2.58121094 67.01044586 -2.62304688 66.15657043 C-2.75294147 63.50039767 -2.877056 60.84400297 -3 58.1875 C-3.12318244 55.541724 -3.24773142 52.89605286 -3.37695312 50.25056458 C-3.45737269 48.60350928 -3.53434308 46.95628099 -3.60742188 45.30888367 C-3.67916778 43.8364898 -3.76641683 42.36472915 -3.87269592 40.89442444 C-3.97818558 39.32462259 -4.00248651 37.7496087 -4.00561523 36.17626953 C-5.22520305 33.50712989 -5.96816329 33.30501013 -8.60180664 32.1472168 C-10.19702609 31.56023796 -11.80059214 30.99563676 -13.41015625 30.44921875 C-14.25219101 30.14554886 -15.09422577 29.84187897 -15.96177673 29.52900696 C-18.65557587 28.56250272 -21.35843254 27.62484288 -24.0625 26.6875 C-25.88933922 26.03768036 -27.7155213 25.38601009 -29.54101562 24.73242188 C-34.01999802 23.13336564 -38.50731003 21.56010657 -43 20 C-41.69484497 16.0845349 -40.29270907 15.76584765 -36.71484375 13.8203125 C-35.62623047 13.22089844 -34.53761719 12.62148437 -33.41601562 12.00390625 C-32.26810547 11.38386719 -31.12019531 10.76382813 -29.9375 10.125 C-27.69560953 8.90027548 -25.45470225 7.67374928 -23.21484375 6.4453125 C-22.13831543 5.86426758 -21.06178711 5.28322266 -19.95263672 4.68457031 C-17.40339416 3.23014881 -15.11727945 1.65841325 -12.75390625 -0.0703125 C-8.26740177 -2.85565753 -4.72711412 -1.71491799 0 0 Z " fill="#2377C0" transform="translate(49,54)"/>
<path d="M0 0 C0.68487488 0.15970276 1.36974976 0.31940552 2.07537842 0.48394775 C6.71213028 1.64713396 11.29260626 3.02953754 15.87451172 4.390625 C17.5485376 4.88227408 19.22639998 5.36103493 20.90771484 5.82714844 C23.35132732 6.50495264 25.78095176 7.22036891 28.2109375 7.9453125 C28.96297455 8.14665802 29.7150116 8.34800354 30.48983765 8.55545044 C32.59521484 9.21142578 32.59521484 9.21142578 36 11 C39.31902121 18.24144921 39.00197964 27.41002376 39.49975586 35.28833008 C39.62513595 37.14098808 39.7700782 38.99242364 39.93432617 40.84204102 C41.28223598 56.09086217 41.28223598 56.09086217 38.42553711 60.34423828 C36.02554702 61.98279441 33.71087104 62.95835495 31 64 C29.06290824 65.09554505 27.14010491 66.2166444 25.23046875 67.359375 C23.21816645 68.49317708 21.20381524 69.62334986 19.1875 70.75 C18.16462891 71.32621094 17.14175781 71.90242188 16.08789062 72.49609375 C7.994566 77.04361996 7.994566 77.04361996 4 79 C2.43657789 77.43657789 2.6902064 75.78231332 2.5 73.609375 C2.3769751 72.21730835 2.3769751 72.21730835 2.25146484 70.79711914 C2.12698975 69.28879517 2.12698975 69.28879517 2 67.75 C1.91314941 66.7283374 1.82629883 65.7066748 1.73681641 64.65405273 C0.89978606 54.44715074 0.40125892 44.23210259 0 34 C-13.58746597 29.38157994 -27.2288724 25.0381502 -41 21 C-41 20.01 -41 19.02 -41 18 C-40.21351074 17.56655273 -39.42702148 17.13310547 -38.61669922 16.68652344 C-35.67461549 15.0634544 -32.7338591 13.43802905 -29.79394531 11.81103516 C-28.52590767 11.10990391 -27.25736154 10.40969144 -25.98828125 9.71044922 C-24.15487478 8.70005776 -22.32337654 7.6862785 -20.4921875 6.671875 C-19.39245605 6.0644043 -18.29272461 5.45693359 -17.15966797 4.83105469 C-13.94419945 3.06766718 -13.94419945 3.06766718 -11.09423828 0.70800781 C-7.07784302 -1.50902716 -4.27575838 -1.02105254 0 0 Z " fill="#2477BF" transform="translate(147,203)"/>
<path d="M0 0 C4.46713764 2.04729824 9.12905239 3.5177644 13.78710938 5.06640625 C15.46984692 5.64205085 17.15100795 6.2223381 18.83007812 6.80859375 C19.53543701 7.05206543 20.2407959 7.29553711 20.9675293 7.54638672 C22.59960938 8.19140625 22.59960938 8.19140625 23.59960938 9.19140625 C23.83028942 11.29178877 23.99578075 13.3993763 24.13476562 15.5078125 C24.2655249 17.48092407 24.2655249 17.48092407 24.39892578 19.49389648 C24.48711126 20.91387139 24.57483149 22.33387527 24.66210938 23.75390625 C24.70696472 24.45959747 24.75182007 25.1652887 24.79803467 25.8923645 C25.43781093 36.0060621 25.8281179 46.05638106 25.59960938 56.19140625 C21.66269834 58.40079075 17.72497086 60.60871628 13.78710938 62.81640625 C12.68689453 63.43386719 11.58667969 64.05132812 10.453125 64.6875 C3.52717343 68.56930177 -3.42061262 72.40722096 -10.40039062 76.19140625 C-12.31635663 74.27544024 -11.78129595 70.85142859 -11.93554688 68.296875 C-11.97852402 67.59428055 -12.02150116 66.8916861 -12.06578064 66.1678009 C-12.15622425 64.6706774 -12.24433187 63.17341128 -12.33032227 61.67602539 C-12.46016254 59.42617795 -12.59858679 57.17698881 -12.73828125 54.92773438 C-13.23588139 46.67320401 -13.53533381 38.46492305 -13.40039062 30.19140625 C-13.95331787 30.03285156 -14.50624512 29.87429687 -15.07592773 29.7109375 C-22.14678159 27.64023341 -29.11408833 25.30574649 -36.06274414 22.85742188 C-37.34386861 22.40837812 -38.62680423 21.96447274 -39.91137695 21.52539062 C-41.78792293 20.88370702 -43.65873187 20.22532145 -45.52929688 19.56640625 C-47.18554077 18.99019531 -47.18554077 18.99019531 -48.87524414 18.40234375 C-50.12519165 17.80292969 -50.12519165 17.80292969 -51.40039062 17.19140625 C-51.73039063 16.20140625 -52.06039062 15.21140625 -52.40039062 14.19140625 C-51.46582031 13.66933594 -50.53125 13.14726562 -49.56835938 12.609375 C-48.94477539 12.25875 -48.32119141 11.908125 -47.67871094 11.546875 C-46.26230069 10.75564349 -44.84087511 9.97333558 -43.41503906 9.19921875 C-39.35964705 6.97163364 -35.54726671 4.63104836 -31.81054688 1.8984375 C-19.66843522 -6.67223887 -13.16927952 -6.3745462 0 0 Z " fill="#2377C0" transform="translate(266.400390625,155.80859375)"/>
<path d="M0 0 C0.72019318 0.2379982 1.44038635 0.4759964 2.18240356 0.72120667 C3.69095872 1.22170593 5.19850912 1.72524303 6.70507812 2.23168945 C9.01892068 3.00763135 11.33724587 3.76893957 13.65625 4.52929688 C15.12529042 5.0186603 16.59405106 5.50886455 18.0625 6 C18.75721405 6.22715195 19.4519281 6.45430389 20.16769409 6.68833923 C25.01805196 8.33688517 25.01805196 8.33688517 26.1328125 10.56640625 C26.3596103 13.07105899 26.53417895 15.55647252 26.66796875 18.06640625 C26.73243446 19.19187866 26.73243446 19.19187866 26.79820251 20.34008789 C26.88849626 21.93380095 26.97661537 23.52763846 27.06274414 25.12158203 C27.19330103 27.52931071 27.33141487 29.93651247 27.47070312 32.34375 C27.68442577 36.09923885 27.87257686 39.85522988 28.04116821 43.61300659 C28.12260686 45.34887275 28.22246272 47.0838529 28.32495117 48.81860352 C28.35951416 49.70604248 28.39407715 50.59348145 28.4296875 51.5078125 C28.46545898 52.23943604 28.50123047 52.97105957 28.53808594 53.72485352 C28.1328125 55.56640625 28.1328125 55.56640625 26.37792969 57.20385742 C23.72640018 58.87915341 20.94918037 60.183595 18.1328125 61.56640625 C14.83826861 63.42172465 11.58195705 65.34149979 8.3203125 67.25390625 C5.93303941 68.63343223 3.54414978 70.01007518 1.15380859 71.38427734 C-0.50332925 72.35357686 -2.13297834 73.36972953 -3.75390625 74.3984375 C-5.8671875 75.56640625 -5.8671875 75.56640625 -8.8671875 75.56640625 C-9.8571875 60.71640625 -10.8471875 45.86640625 -11.8671875 30.56640625 C-23.7471875 26.60640625 -35.6271875 22.64640625 -47.8671875 18.56640625 C-47.8671875 17.57640625 -47.8671875 16.58640625 -47.8671875 15.56640625 C-44.29267201 13.50322705 -40.71804188 11.44024661 -37.14331055 9.37744141 C-35.93006373 8.67729924 -34.71684694 7.97710503 -33.50366211 7.27685547 C-32.91657471 6.93799316 -32.3294873 6.59913086 -31.72460938 6.25 C-31.1453067 5.91528687 -30.56600403 5.58057373 -29.96914673 5.23571777 C-28.26701946 4.25484206 -26.56102845 3.28068101 -24.85498047 2.30664062 C-23.11733942 1.29455487 -21.39356684 0.25616595 -19.71142578 -0.84570312 C-13.16916515 -5.09625211 -6.89797059 -2.31603151 0 0 Z " fill="#2377BF" transform="translate(158.8671875,6.43359375)"/>
</svg>
