<?xml version="1.0" encoding="UTF-8"?>
<svg version="1.1" xmlns="http://www.w3.org/2000/svg" width="508" height="437">
<path d="M0 0 C167.64 0 335.28 0 508 0 C508 144.21 508 288.42 508 437 C340.36 437 172.72 437 0 437 C0 292.79 0 148.58 0 0 Z " fill="#FDFEFE" transform="translate(0,0)"/>
<path d="M0 0 C32.80487805 0 32.80487805 0 41 8 C44.27428987 13.0684213 43.57136948 19.21576579 43 25 C41.42331053 29.94313455 38.23692274 33.10105287 34 36 C33.01 36.495 33.01 36.495 32 37 C32.53109375 37.30292969 33.0621875 37.60585938 33.609375 37.91796875 C38.97724718 41.10146959 42.60352191 43.92774821 45.25 49.75 C46.85870293 56.72104601 46.54515246 62.46482566 43.3203125 68.92578125 C38.97932359 75.74550052 33.78809431 77.40396856 26 80 C17.42 80 8.84 80 0 80 C0 53.6 0 27.2 0 0 Z " fill="#10256B" transform="translate(182,328)"/>
<path d="M0 0 C6.94971843 1.76100825 13.73122801 4.13702658 20.49780273 6.49145508 C22.06872489 7.03430997 23.64270119 7.5684004 25.21948242 8.09399414 C27.51513444 8.85921148 29.8008788 9.64909939 32.0859375 10.4453125 C32.79108994 10.67571732 33.49624237 10.90612213 34.22276306 11.14350891 C37.3330214 12.25782684 39.09745753 12.98324032 40.83374023 15.859375 C41.40233711 18.48825053 41.71874865 20.90616273 41.81640625 23.59375 C41.85709229 24.56844238 41.89777832 25.54313477 41.93969727 26.54736328 C41.99914283 28.66918924 42.04879295 30.79130798 42.08959961 32.91357422 C42.19148473 37.90631854 42.34270031 42.66972567 43.3046875 47.578125 C44.07094729 52.19514428 44.73849979 56.24733832 42.40234375 60.48828125 C36.34865614 66.06552123 28.77086759 69.57066681 21.38720703 73.05322266 C17.86607655 74.74610708 14.49668163 76.64209077 11.12475586 78.61206055 C9.40234375 79.48828125 9.40234375 79.48828125 7.40234375 79.48828125 C6.14475994 64.46751293 5.04755438 49.56682957 5.40234375 34.48828125 C4.80188232 34.33770264 4.2014209 34.18712402 3.58276367 34.03198242 C-5.20076886 31.73995445 -13.71963255 28.78479425 -22.28515625 25.80078125 C-23.77657888 25.28417646 -25.26811462 24.76789811 -26.75976562 24.25195312 C-30.37370879 23.00114927 -33.98609993 21.74595939 -37.59765625 20.48828125 C-34.94101156 17.44264464 -31.78375898 15.73854176 -28.28515625 13.765625 C-27.67502686 13.41947647 -27.06489746 13.07332794 -26.4362793 12.71669006 C-24.49264342 11.61509857 -22.54533448 10.52020697 -20.59765625 9.42578125 C-18.65073883 8.32648989 -16.70460874 7.22582518 -14.7590332 6.12416077 C-12.99440072 5.12578784 -11.22771901 4.13103954 -9.4609375 3.13647461 C-3.21721413 -0.45760592 -3.21721413 -0.45760592 0 0 Z " fill="#3F75B8" transform="translate(250.59765625,101.51171875)"/>
<path d="M0 0 C1.84327292 0.57861529 3.6883268 1.15158894 5.53515625 1.71875 C7.37836324 2.31013938 9.22081355 2.9038923 11.0625 3.5 C12.90728206 4.09458845 14.75233291 4.68834356 16.59765625 5.28125 C17.48727051 5.56742188 18.37688477 5.85359375 19.29345703 6.1484375 C22.87965142 7.27676566 26.48645692 8.32986447 30.09936523 9.36914062 C32 10 32 10 33 11 C33.23086944 13.28175642 33.39624873 15.57017912 33.53515625 17.859375 C33.59962196 18.90970917 33.59962196 18.90970917 33.66539001 19.98126221 C33.75584563 21.47418844 33.84395229 22.96725851 33.92993164 24.46044922 C34.05956603 26.69932818 34.19809222 28.93751686 34.33789062 31.17578125 C34.85913664 39.7934275 35.12724212 48.36261657 35 57 C34.28457031 57.39791748 33.56914062 57.79583496 32.83203125 58.20581055 C30.13986267 59.70448298 27.44874861 61.20502805 24.75830078 62.70678711 C23.03627108 63.66726938 21.31306956 64.62564974 19.58984375 65.58398438 C14.77657292 68.27209761 10.0004616 70.95492877 5.375 73.95703125 C2 76 2 76 -1 76 C-1.28722473 70.71651644 -1.57197536 65.43290732 -1.85449219 60.14916992 C-1.95082684 58.35388642 -2.04782266 56.55863826 -2.14550781 54.76342773 C-2.28627006 52.17440791 -2.42460842 49.58526786 -2.5625 46.99609375 C-2.60624756 46.20101913 -2.64999512 45.40594452 -2.69506836 44.58677673 C-2.93401123 40.05001721 -3.04228568 35.5430673 -3 31 C-3.61931396 30.83636963 -4.23862793 30.67273926 -4.87670898 30.50415039 C-12.33586193 28.50440479 -19.73164735 26.31572464 -27.11010742 24.03833008 C-29.08925937 23.42926506 -31.07095243 22.8289598 -33.05273438 22.22851562 C-34.30505859 21.84244141 -35.55738281 21.45636719 -36.84765625 21.05859375 C-37.98211182 20.71111084 -39.11656738 20.36362793 -40.28540039 20.00561523 C-43 19 -43 19 -45 17 C-43.97003906 16.39414063 -42.94007813 15.78828125 -41.87890625 15.1640625 C-40.85917725 14.56307739 -40.85917725 14.56307739 -39.81884766 13.94995117 C-38.29906395 13.05751813 -36.77653539 12.16974499 -35.25146484 11.28637695 C-31.2493773 8.95941959 -27.32081656 6.57861102 -23.47265625 4.00390625 C-22.74296631 3.53194824 -22.01327637 3.05999023 -21.26147461 2.57373047 C-19.87251813 1.67251976 -18.50065569 0.74419778 -17.15063477 -0.21435547 C-10.95852182 -4.14966011 -6.57509637 -2.38077404 0 0 Z " fill="#3F75B8" transform="translate(361,54)"/>
<path d="M0 0 C1.89253105 0.65400885 3.78513128 1.30782551 5.6789856 1.95799255 C8.44015184 2.91195081 11.19218034 3.8908115 13.9440918 4.87109375 C16.08829489 5.63417997 18.23448114 6.39149395 20.38085938 7.1484375 C21.7449129 7.632471 23.10884972 8.11683352 24.47265625 8.6015625 C26.31742554 9.25632568 26.31742554 9.25632568 28.19946289 9.92431641 C31 11 31 11 32 12 C32.23086944 14.28175642 32.39624873 16.57017912 32.53515625 18.859375 C32.59962196 19.90970917 32.59962196 19.90970917 32.66539001 20.98126221 C32.75584563 22.47418844 32.84395229 23.96725851 32.92993164 25.46044922 C33.05956603 27.69932818 33.19809222 29.93751686 33.33789062 32.17578125 C33.85913664 40.7934275 34.12724212 49.36261657 34 58 C32.76697144 58.70346558 32.76697144 58.70346558 31.5090332 59.42114258 C28.44302692 61.17070338 25.37730368 62.92075815 22.31176758 64.67114258 C20.98798654 65.42687299 19.66409483 66.18240957 18.34008789 66.93774414 C16.43085675 68.02698959 14.5220321 69.11694443 12.61328125 70.20703125 C12.02662186 70.54152786 11.43996246 70.87602448 10.83552551 71.22065735 C8.26731195 72.68815849 5.72256643 74.17283424 3.21166992 75.73706055 C1 77 1 77 -1 77 C-1.96822762 71.9567045 -2.29502664 66.99895519 -2.53515625 61.8828125 C-2.57813339 61.02565643 -2.62111053 60.16850037 -2.66539001 59.28536987 C-2.80102111 56.56539637 -2.93183145 53.84521596 -3.0625 51.125 C-3.15397794 49.27342172 -3.24577144 47.42185899 -3.33789062 45.5703125 C-3.56224695 41.04704697 -3.78228204 36.52358972 -4 32 C-4.6016095 31.82828278 -5.20321899 31.65656555 -5.82305908 31.47964478 C-14.04624639 29.11338728 -22.07357642 26.19632983 -30.125 23.3125 C-31.57283508 22.79599521 -33.02075119 22.27971748 -34.46875 21.76367188 C-37.98010364 20.51172814 -41.49035427 19.25672486 -45 18 C-42.92336563 15.76562629 -40.93865611 14.25334944 -38.26171875 12.80078125 C-37.53082031 12.39947998 -36.79992187 11.99817871 -36.046875 11.5847168 C-35.26828125 11.16488525 -34.4896875 10.74505371 -33.6875 10.3125 C-26.75463005 6.58179424 -26.75463005 6.58179424 -20.05078125 2.4609375 C-19.4472583 2.07639404 -18.84373535 1.69185059 -18.22192383 1.2956543 C-16.60274843 0.25362436 -15.00369418 -0.81948359 -13.40625 -1.89453125 C-8.25916877 -3.5649716 -4.93564786 -1.85938529 0 0 Z " fill="#3F75B8" transform="translate(154,152)"/>
<path d="M0 0 C2.18035058 0.69809788 4.36143949 1.39383917 6.54277039 2.08886719 C7.8913459 2.51947952 9.23921541 2.9523112 10.58625793 3.38769531 C13.60047666 4.35857749 16.60075915 5.28793566 19.6875 6 C19.97650979 10.78288147 20.2611514 15.56599713 20.54199219 20.34936523 C20.63783806 21.97182997 20.73481493 23.59422835 20.83300781 25.21655273 C21.1102652 29.80403091 21.36347645 34.39157629 21.58267212 38.98220825 C21.67747469 40.80702671 21.80310983 42.6301793 21.93237305 44.45288086 C22.26496366 51.3411129 22.26496366 51.3411129 19.58203125 54.40234375 C18.56496094 54.90894531 17.54789062 55.41554688 16.5 55.9375 C14.75203125 56.86369141 14.75203125 56.86369141 12.96875 57.80859375 C12.30230469 58.14358887 11.63585937 58.47858398 10.94921875 58.82373047 C8.32227732 60.18994418 5.77461312 61.66525913 3.21875 63.16015625 C-4.35827227 67.58704235 -4.35827227 67.58704235 -7.98046875 69.65625 C-9.16032349 70.33397461 -9.16032349 70.33397461 -10.36401367 71.02539062 C-12.3125 72 -12.3125 72 -14.3125 72 C-14.36784912 70.92105469 -14.42319824 69.84210938 -14.48022461 68.73046875 C-14.68790081 64.69727244 -14.89942299 60.66428518 -15.11206055 56.63134766 C-15.20326652 54.89149284 -15.2934531 53.15158425 -15.38256836 51.41162109 C-15.5114257 48.89926289 -15.64404402 46.38712596 -15.77734375 43.875 C-15.81593002 43.10696045 -15.8545163 42.3389209 -15.89427185 41.54760742 C-16.15823437 36.65906284 -16.65548571 31.85179782 -17.3125 27 C-18.48345215 26.64695801 -19.6544043 26.29391602 -20.86083984 25.93017578 C-25.19759326 24.62081928 -29.53178021 23.30314085 -33.86523438 21.98291016 C-35.74247194 21.41226891 -37.62040126 20.84389828 -39.49902344 20.27783203 C-42.19650656 19.46459926 -44.89141059 18.64327936 -47.5859375 17.8203125 C-48.42869232 17.56814972 -49.27144714 17.31598694 -50.13973999 17.05618286 C-51.31072739 16.69603592 -51.31072739 16.69603592 -52.50537109 16.32861328 C-53.19376068 16.11987579 -53.88215027 15.91113831 -54.59140015 15.69607544 C-56.3125 15 -56.3125 15 -58.3125 13 C-57.59707031 12.60208252 -56.88164062 12.20416504 -56.14453125 11.79418945 C-53.45236267 10.29551702 -50.76124861 8.79497195 -48.07080078 7.29321289 C-46.34877108 6.33273062 -44.62556956 5.37435026 -42.90234375 4.41601562 C-41.80019531 3.80048828 -40.69804687 3.18496094 -39.5625 2.55078125 C-37.93828125 1.64900146 -37.93828125 1.64900146 -36.28125 0.72900391 C-33.75523497 -0.74215057 -31.43392407 -2.31918725 -29.0625 -4.01953125 C-20.70760114 -9.1916115 -8.59224889 -2.78490798 0 0 Z " fill="#3F74B8" transform="translate(271.3125,209)"/>
<path d="M0 0 C1.1535498 0.39461426 2.30709961 0.78922852 3.49560547 1.19580078 C7.49656841 2.59749193 11.46673557 4.07789447 15.4375 5.5625 C16.82468256 6.0753765 18.21205112 6.58775019 19.59960938 7.09960938 C29.6078515 10.80392575 29.6078515 10.80392575 32 12 C32.47344262 15.02013072 32.80894168 17.95866926 33.0625 21 C33.14483887 21.91740967 33.22717773 22.83481934 33.31201172 23.7800293 C34.27368986 35.16496541 34.65044255 46.5825444 35 58 C34.25427734 58.42821045 33.50855469 58.8564209 32.74023438 59.29760742 C29.93648126 60.9085472 27.13351651 62.52084824 24.33105469 64.1340332 C23.12498185 64.82792711 21.91860895 65.52129975 20.71191406 66.21411133 C12.41680689 70.96814244 12.41680689 70.96814244 4.28125 75.98828125 C1 78 1 78 -1 78 C-1.29146331 73.86021325 -1.5758891 69.72001309 -1.85449219 65.5793457 C-1.94968141 64.17817948 -2.04661616 62.77713048 -2.14550781 61.3762207 C-2.83657013 51.56384094 -3.12794271 41.83826106 -3 32 C-4.16402344 31.78601563 -5.32804687 31.57203125 -6.52734375 31.3515625 C-13.7636004 29.74350547 -20.63654943 26.9709016 -27.5625 24.375 C-28.96659799 23.85363074 -30.37089349 23.33279306 -31.77539062 22.8125 C-35.18589243 21.5477867 -38.59366583 20.27590226 -42 19 C-42 18.34 -42 17.68 -42 17 C-38.42548451 14.9368208 -34.85085438 12.87384036 -31.27612305 10.81103516 C-30.06287623 10.11089299 -28.84965944 9.41069878 -27.63647461 8.71044922 C-27.04938721 8.37158691 -26.4622998 8.03272461 -25.85742188 7.68359375 C-25.27828033 7.34880005 -24.69913879 7.01400635 -24.10244751 6.66906738 C-22.39861052 5.68772359 -20.68933086 4.7158491 -18.97998047 3.74414062 C-16.10765176 2.11439702 -16.10765176 2.11439702 -13.91455078 0.55273438 C-8.99818441 -2.82416374 -5.28774178 -1.81183056 0 0 Z " fill="#4074B7" transform="translate(156,55)"/>
<path d="M0 0 C3.79881006 1.08373872 7.4904636 2.39099453 11.19848633 3.75024414 C11.99046921 4.03737778 12.78245209 4.32451141 13.59843445 4.62034607 C16.11609069 5.53399197 18.63190695 6.45258948 21.14770508 7.37133789 C22.8591744 7.99341078 24.57076169 8.61515921 26.2824707 9.23657227 C30.46809131 10.75690585 34.65206929 12.28168144 38.83520508 13.80883789 C41.15517834 45.19943357 41.15517834 45.19943357 40.83520508 60.80883789 C40.11977539 61.20675537 39.4043457 61.60467285 38.66723633 62.01464844 C35.97506775 63.51332087 33.28395368 65.01386594 30.59350586 66.515625 C28.87147616 67.47610727 27.14827464 68.43448764 25.42504883 69.39282227 C20.59870589 72.08823601 15.80300666 74.78264582 11.14770508 77.76586914 C7.83520508 79.80883789 7.83520508 79.80883789 5.83520508 79.80883789 C4.9878554 74.47332836 4.56171911 69.20647473 4.30004883 63.81274414 C4.2617395 63.07278198 4.22343018 62.33281982 4.18395996 61.57043457 C4.04340028 58.83757885 3.90836828 56.10444106 3.77270508 53.37133789 C3.46333008 47.24571289 3.15395508 41.12008789 2.83520508 34.80883789 C-10.03479492 30.18883789 -22.90479492 25.56883789 -36.16479492 20.80883789 C-33.16341101 17.80745398 -30.53204982 16.16125294 -26.85229492 14.08618164 C-26.24216553 13.74003311 -25.63203613 13.39388458 -25.00341797 13.0372467 C-23.0597821 11.93565522 -21.11247315 10.84076361 -19.16479492 9.74633789 C-17.2178775 8.64704653 -15.27174741 7.54638183 -13.32617188 6.44471741 C-11.56153939 5.44634448 -9.79485768 4.45159618 -8.02807617 3.45703125 C-1.75344936 -0.15483826 -1.75344936 -0.15483826 0 0 Z " fill="#3F75B8" transform="translate(357.164794921875,151.191162109375)"/>
<path d="M0 0 C0.72256485 0.24274155 1.4451297 0.48548309 2.18959045 0.73558044 C4.47340444 1.50425302 6.75427514 2.28126715 9.03515625 3.05859375 C10.59291128 3.58454057 12.15085237 4.10993665 13.70898438 4.63476562 C17.50738878 5.91551883 21.3031786 7.20375555 25.09765625 8.49609375 C26.03195451 20.67054676 26.03195451 20.67054676 26.33398438 25.95703125 C26.80669272 34.39323426 26.80669272 34.39323426 28.00390625 42.75 C28.70934915 47.1434712 28.84004101 50.2685181 27.09765625 54.49609375 C21.54840178 59.66936016 14.59818976 62.90155756 7.82080078 66.16259766 C4.34589985 67.86422119 1.08926263 69.79722401 -2.21484375 71.80859375 C-6.77643576 74.49609375 -6.77643576 74.49609375 -7.90234375 74.49609375 C-8.33141315 68.58802111 -8.75861259 62.67981736 -9.18408203 56.77148438 C-9.32907587 54.7616816 -9.47458004 52.75191558 -9.62060547 50.7421875 C-9.83044562 47.85295984 -10.03844837 44.96360487 -10.24609375 42.07421875 C-10.31171509 41.17616516 -10.37733643 40.27811157 -10.44494629 39.35284424 C-10.50500854 38.51227478 -10.5650708 37.67170532 -10.62695312 36.80566406 C-10.6802478 36.06842102 -10.73354248 35.33117798 -10.78845215 34.57159424 C-10.89943428 32.54911435 -10.90234375 30.52161638 -10.90234375 28.49609375 C-12.09859375 28.25890625 -13.29484375 28.02171875 -14.52734375 27.77734375 C-21.12881043 26.30805179 -27.49386792 24.13681193 -33.90234375 21.99609375 C-35.14113281 21.59261719 -36.37992188 21.18914063 -37.65625 20.7734375 C-38.83058594 20.38285156 -40.00492188 19.99226563 -41.21484375 19.58984375 C-42.28347656 19.23599609 -43.35210937 18.88214844 -44.453125 18.51757812 C-46.90234375 17.49609375 -46.90234375 17.49609375 -47.90234375 15.49609375 C-44.32782826 13.43291455 -40.75319813 11.36993411 -37.1784668 9.30712891 C-35.96521998 8.60698674 -34.75200319 7.90679253 -33.53881836 7.20654297 C-32.95173096 6.86768066 -32.36464355 6.52881836 -31.75976562 6.1796875 C-31.18046295 5.84497437 -30.60116028 5.51026123 -30.00430298 5.16540527 C-28.30217571 4.18452956 -26.5961847 3.21036851 -24.89013672 2.23632812 C-23.15249567 1.22424237 -21.42872309 0.18585345 -19.74658203 -0.91601562 C-13.17416811 -5.18615539 -6.90606914 -2.37133207 0 0 Z " fill="#4075B8" transform="translate(265.90234375,7.50390625)"/>
<path d="M0 0 C6.14425636 3.17768051 9.11620543 7.72683858 11.44287109 14.15869141 C12.47163816 17.83841854 12.50870595 21.38780317 12.4375 25.1875 C12.42734863 25.97358643 12.41719727 26.75967285 12.40673828 27.56958008 C12.17015865 36.49266702 10.95449752 44.10385432 4.85546875 50.9375 C-2.09162116 56.50728015 -9.4260197 56.17865908 -17.9375 55.375 C-23.50686433 53.95734362 -26.74942609 51.04411605 -29.9296875 46.3515625 C-33.18006931 39.97678268 -33.30350716 34.08141324 -33.3125 27.0625 C-33.33699219 26.06798828 -33.36148437 25.07347656 -33.38671875 24.04882812 C-33.41578472 16.67091635 -32.37151398 10.0671637 -27.18701172 4.49291992 C-19.58620823 -2.5149989 -9.62163937 -3.86799573 0 0 Z " fill="#11266B" transform="translate(296.9375,353.625)"/>
<path d="M0 0 C4.9026285 2.97659588 7.30184562 6.44229537 9.1875 11.8125 C10.4375 17.3125 10.4375 17.3125 10.4375 30.3125 C-0.7825 30.3125 -12.0025 30.3125 -23.5625 30.3125 C-22.41950954 40.45319143 -22.41950954 40.45319143 -16.5625 46.3125 C-10.395768 49.395866 -2.55137213 47.01341751 3.6015625 44.96875 C4.20742188 44.7521875 4.81328125 44.535625 5.4375 44.3125 C6.78266985 46.52807387 7.47156779 47.83380394 7.28515625 50.453125 C6.4375 52.3125 6.4375 52.3125 2.875 54.0625 C-1.62731316 55.3798971 -6.08470232 55.62967237 -10.75 55.6875 C-11.76525757 55.70828613 -11.76525757 55.70828613 -12.80102539 55.72949219 C-18.26628931 55.67858398 -22.17303919 54.32193763 -26.35546875 50.8046875 C-26.81566406 50.27101563 -27.27585937 49.73734375 -27.75 49.1875 C-28.21792969 48.66929687 -28.68585938 48.15109375 -29.16796875 47.6171875 C-33.20173888 40.95073267 -34.09352132 34.04080278 -34 26.375 C-33.99170166 25.49763184 -33.98340332 24.62026367 -33.97485352 23.71630859 C-33.78232983 16.34559761 -32.968073 10.13771707 -27.9140625 4.4609375 C-20.39301653 -2.46893455 -9.4618885 -4.39301966 0 0 Z " fill="#1E3273" transform="translate(393.5625,353.6875)"/>
<path d="M0 0 C3.3 0 6.6 0 10 0 C10 9.9 10 19.8 10 30 C13.96 28.02 17.92 26.04 22 24 C28.34428662 23.33606303 32.59865681 23.31127782 38 27 C40.7368491 30.00570525 41.37179952 31.9139291 41.34057617 35.95214844 C41.34023628 37.42322052 41.34023628 37.42322052 41.33988953 38.92401123 C41.32440567 39.97518127 41.30892181 41.02635132 41.29296875 42.109375 C41.28872391 43.19132141 41.28447906 44.27326782 41.28010559 45.38800049 C41.26331845 48.8422539 41.22566527 52.29592304 41.1875 55.75 C41.17245325 58.09243949 41.15876483 60.43488813 41.14648438 62.77734375 C41.11341466 68.51845415 41.06163125 74.25912803 41 80 C38.03 80 35.06 80 32 80 C31.98018066 78.68281982 31.96036133 77.36563965 31.93994141 76.00854492 C31.86394159 71.12748912 31.77521552 66.24673362 31.68261719 61.3659668 C31.64430419 59.25242028 31.60945543 57.13880804 31.578125 55.02514648 C31.53252496 51.9891814 31.47452217 48.95366972 31.4140625 45.91796875 C31.40251129 44.97100632 31.39096008 44.02404388 31.37905884 43.04838562 C31.35918915 42.16769913 31.33931946 41.28701263 31.31884766 40.37963867 C31.30552399 39.60464523 31.29220032 38.82965179 31.2784729 38.03117371 C31.10791565 35.68895197 31.10791565 35.68895197 29 33 C26.57949861 32.48150592 26.57949861 32.48150592 23.8125 32.5625 C22.89082031 32.54316406 21.96914063 32.52382813 21.01953125 32.50390625 C17.08824945 33.14979601 13.86554466 34.20107373 11 37 C9.95249289 40.2494343 10.04510523 43.40561744 10.09765625 46.796875 C10.07921913 48.22003021 10.07921913 48.22003021 10.06040955 49.67193604 C10.028646 52.69874133 10.04496609 55.72311789 10.0625 58.75 C10.04939314 60.80340809 10.03315438 62.85679875 10.01367188 64.91015625 C9.97278747 69.94062337 9.97501799 74.96944613 10 80 C6.7 80 3.4 80 0 80 C0 53.6 0 27.2 0 0 Z " fill="#12276A" transform="translate(465,328)"/>
<path d="M0 0 C1.94140625 1.16796875 1.94140625 1.16796875 2.94140625 4.16796875 C1.50390625 6.85546875 1.50390625 6.85546875 -0.05859375 9.16796875 C-1.07566406 8.73484375 -1.07566406 8.73484375 -2.11328125 8.29296875 C-8.4556468 5.76305008 -14.2054293 3.94590096 -21.05859375 5.16796875 C-24.16191531 6.51778748 -26.5057937 8.06236865 -28.05859375 11.16796875 C-28.46380341 16.43569435 -28.20011856 19.85959186 -25.05859375 24.16796875 C-21.53944292 26.74748237 -17.80143043 28.9310965 -14.05859375 31.16796875 C-7.06328857 35.62228754 0.12670104 40.53855832 3.94140625 48.16796875 C4.09285189 50.76584404 4.17277606 53.31905696 4.19140625 55.91796875 C4.21203125 56.62179687 4.23265625 57.325625 4.25390625 58.05078125 C4.29897559 64.11260729 2.68524597 68.07536109 -1.24609375 72.79296875 C-9.2913105 79.58670734 -16.87776884 80.13893522 -27.05419922 79.41748047 C-31.42432539 78.87347694 -35.22361533 77.25748653 -39.05859375 75.16796875 C-39.71859375 74.83796875 -40.37859375 74.50796875 -41.05859375 74.16796875 C-40.18359375 68.41796875 -40.18359375 68.41796875 -39.05859375 66.16796875 C-38.39859375 66.43609375 -37.73859375 66.70421875 -37.05859375 66.98046875 C-36.06859375 67.37234375 -35.07859375 67.76421875 -34.05859375 68.16796875 C-33.47722656 68.43222656 -32.89585938 68.69648438 -32.296875 68.96875 C-26.3763075 71.50270485 -20.15378513 72.63861759 -13.9375 70.40625 C-10.38982061 68.5402149 -8.4489273 66.88196162 -7.05859375 63.16796875 C-6.59185015 60.1329111 -6.59185015 60.1329111 -6.55859375 56.85546875 C-6.50703125 55.76621094 -6.45546875 54.67695313 -6.40234375 53.5546875 C-7.46743527 48.05805446 -10.63259716 44.87918307 -15.14257812 41.69799805 C-17.41870485 40.29486865 -19.72182384 38.9674596 -22.05859375 37.66796875 C-29.06019434 33.77433938 -34.2890834 29.82578161 -38.43359375 22.85546875 C-39.83916279 16.81152187 -40.12589587 11.28454957 -36.93359375 5.79296875 C-28.52664309 -6.02930562 -12.15584841 -4.72828083 0 0 Z " fill="#11256A" transform="translate(43.05859375,329.83203125)"/>
<path d="M0 0 C3.3 0 6.6 0 10 0 C12.81455808 7.24002077 15.19146532 14.60453783 17.5625 22 C17.96146484 23.23234375 18.36042969 24.4646875 18.77148438 25.734375 C20.71656464 31.78717902 22.56735856 37.80479377 24 44 C24.1858667 43.27111572 24.3717334 42.54223145 24.56323242 41.79125977 C28.14215001 27.78771074 31.76944949 13.82239775 36 0 C39.3 0 42.6 0 46 0 C44.081059 8.02143239 41.8869019 15.90034904 39.3828125 23.7578125 C39.04377899 24.82691864 38.70474548 25.89602478 38.35543823 26.99752808 C37.64309697 29.23841066 36.92872857 31.4786498 36.21240234 33.71826172 C35.12638054 37.1206749 34.05322183 40.52697733 32.98046875 43.93359375 C32.28203412 46.12525004 31.58284088 48.31666475 30.8828125 50.5078125 C30.41066818 52.01445969 30.41066818 52.01445969 29.9289856 53.55154419 C26.86380043 63.05074294 23.31282163 73.82479744 14.5 79.375 C11 81 11 81 8.6875 80.9375 C7 80 7 80 5 77 C5 76.01 5 75.02 5 74 C6.57421875 72.74609375 6.57421875 72.74609375 8.6875 71.4375 C13.46228794 67.99897178 16.74087508 63.82544503 18 58 C17.08197869 51.28045359 14.73256981 44.81124034 12.55859375 38.41796875 C12.23085464 37.44136795 11.90311554 36.46476715 11.56544495 35.45857239 C10.52709382 32.36674916 9.48262274 29.27704008 8.4375 26.1875 C7.38987923 23.07975884 6.34356617 19.97158583 5.29884338 16.86286926 C4.65081427 14.93569736 4.00093382 13.00914674 3.34898376 11.08329773 C3.0552034 10.21171524 2.76142303 9.34013275 2.45874023 8.44213867 C2.20051987 7.6787468 1.9422995 6.91535492 1.67625427 6.12882996 C1.03502416 4.11025509 0.51368453 2.05473812 0 0 Z " fill="#11266B" transform="translate(53,353)"/>
<path d="M0 0 C3.3 0 6.6 0 10 0 C13.37678585 10.50014967 16.75402755 21.00179446 19.9375 31.5625 C20.14850342 32.24497803 20.35950684 32.92745605 20.5769043 33.63061523 C21.63250766 37.18168824 22.23483028 40.29252808 22 44 C22.66 44 23.32 44 24 44 C24.0928125 42.29650391 24.0928125 42.29650391 24.1875 40.55859375 C25.04699527 32.83372868 27.6970271 25.45412053 30 18.0625 C30.46944338 16.5308113 30.93819914 14.99891167 31.40625 13.46679688 C31.85355985 12.01023018 32.30145515 10.55384311 32.75 9.09765625 C32.96043945 8.41437759 33.17087891 7.73109894 33.38769531 7.02711487 C34.88099365 2.2380127 34.88099365 2.2380127 36 0 C39.3 0 42.6 0 46 0 C43.9369694 6.98723886 41.74098461 13.91292555 39.42578125 20.8203125 C39.09708542 21.80498505 38.76838959 22.78965759 38.42973328 23.8041687 C37.39207844 26.91159003 36.35232634 30.01830473 35.3125 33.125 C34.60337614 35.24734923 33.89439046 37.36974464 33.18554688 39.4921875 C31.45862715 44.66199315 29.72982774 49.83116669 28 55 C24.7 55 21.4 55 18 55 C14.79086069 46.2717612 11.70991019 37.50303115 8.68115234 28.7109375 C8.14223166 27.14934055 7.60120354 25.58846935 7.05810547 24.02832031 C1.48676374 8.02118213 1.48676374 8.02118213 0 0 Z " fill="#11266B" transform="translate(103,353)"/>
<path d="M0 0 C3.90424056 2.78874325 5.616546 5.47670693 7 10 C7.31375491 13.27414224 7.32459417 16.52530584 7.3125 19.8125 C7.32861328 20.67681641 7.34472656 21.54113281 7.36132812 22.43164062 C7.36649631 29.2794894 6.45546734 35.1112149 1.875 40.5 C-2.17707634 42.61412679 -5.5256801 42.88381628 -10 42 C-14.86190746 39.20890498 -17.01500033 36.23845123 -18.53125 30.859375 C-19.97813609 22.03336987 -20.44647441 11.97298859 -16 4 C-11.87327867 -1.15840167 -6.13602539 -1.07034428 0 0 Z " fill="#F8FAFC" transform="translate(292,360)"/>
<path d="M0 0 C2.97 0 5.94 0 9 0 C9 5.61 9 11.22 9 17 C14.94 17 20.88 17 27 17 C27 19.31 27 21.62 27 24 C21.06 24 15.12 24 9 24 C9.07419518 28.73314088 9.1571924 33.46445849 9.26245117 38.19677734 C9.29559363 39.8047524 9.32365854 41.41284081 9.34643555 43.02099609 C9.38017967 45.34000705 9.43250194 47.65798931 9.48828125 49.9765625 C9.49467117 50.68930328 9.5010611 51.40204407 9.50764465 52.13638306 C9.64746808 56.94159956 10.4659536 61.4659536 14 65 C16.01964199 65.07244053 18.04167124 65.08377188 20.0625 65.0625 C21.71958984 65.04896484 21.71958984 65.04896484 23.41015625 65.03515625 C24.26480469 65.02355469 25.11945313 65.01195312 26 65 C26.66 66.98 27.32 68.96 28 71 C22.41834247 74.50443308 15.30314135 73.76769029 9 73 C4.78379098 71.06534713 2.69242135 68.67848152 0.93725586 64.42382812 C-0.19802779 60.27659762 -0.25198937 56.59396992 -0.1953125 52.3203125 C-0.1924826 51.50754852 -0.18965271 50.69478455 -0.18673706 49.85739136 C-0.17560619 47.27977325 -0.15051515 44.70251181 -0.125 42.125 C-0.11496101 40.36979671 -0.10583677 38.61458794 -0.09765625 36.859375 C-0.07569015 32.57278074 -0.04120978 28.2864507 0 24 C-2.64 24 -5.28 24 -8 24 C-8 22.02 -8 20.04 -8 18 C-5.36 18 -2.72 18 0 18 C0 12.06 0 6.12 0 0 Z " fill="#0D2268" transform="translate(325,336)"/>
<path d="M0 0 C-0.60183749 2.02045442 -1.27306096 4.02111039 -2 6 C-2.66 6.33 -3.32 6.66 -4 7 C-4.55816406 6.69964844 -5.11632812 6.39929688 -5.69140625 6.08984375 C-10.65363692 3.74726785 -16.66087357 4.37520861 -22 5 C-24.77715648 6.36679662 -25.32727041 7.2740703 -27 10 C-28.52761284 14.81649572 -28.2633418 19.80819521 -28.3125 24.8125 C-28.34150391 25.78509766 -28.37050781 26.75769531 -28.40039062 27.75976562 C-28.45585512 34.06138564 -27.86115441 37.93519325 -24 43 C-19.85401159 46.00397962 -14.90265776 45.49240668 -10 45 C-6.904592 44.21133198 -3.95844411 43.20052804 -1 42 C-0.34 44.31 0.32 46.62 1 49 C-7.05971626 53.24794457 -14.97496965 54.11308708 -24 53 C-27.71418889 51.47954572 -30.56160797 49.92015211 -33.1875 46.875 C-33.65542969 46.35679687 -34.12335938 45.83859375 -34.60546875 45.3046875 C-38.76294988 38.43378031 -39.50063205 31.38576705 -39.4375 23.5 C-39.45748047 22.61441406 -39.47746094 21.72882813 -39.49804688 20.81640625 C-39.49289168 13.79503441 -38.0988393 7.48185205 -33.32299805 2.11572266 C-23.80284665 -6.92550785 -10.94759021 -5.31943646 0 0 Z " fill="#13276C" transform="translate(453,356)"/>
<path d="M0 0 C0.99 0.33 1.98 0.66 3 1 C3 1.66 3 2.32 3 3 C5.97 2.34 8.94 1.68 12 1 C12 1.66 12 2.32 12 3 C12.66 3.33 13.32 3.66 14 4 C13.12988281 4.03867187 13.12988281 4.03867187 12.2421875 4.078125 C6.83083506 4.47102848 3.07426836 5.11974442 -1 9 C-3.14229033 13.49460913 -4.02686095 18.13430476 -5 23 C3.25 23 11.5 23 20 23 C20.495 23.99 20.495 23.99 21 25 C20.505 26.485 20.505 26.485 20 28 C11.75 28 3.5 28 -5 28 C-3.12492912 38.63987636 -3.12492912 38.63987636 3 45 C9.166732 48.083366 17.01112787 45.70091751 23.1640625 43.65625 C23.76992188 43.4396875 24.37578125 43.223125 25 43 C26.34516985 45.21557387 27.03406779 46.52130394 26.84765625 49.140625 C26 51 26 51 22.4375 52.75 C17.93518684 54.0673971 13.47779768 54.31717237 8.8125 54.375 C7.79724243 54.39578613 7.79724243 54.39578613 6.76147461 54.41699219 C1.29621069 54.36608398 -2.61053919 53.00943763 -6.79296875 49.4921875 C-7.25316406 48.95851563 -7.71335937 48.42484375 -8.1875 47.875 C-8.65542969 47.35679687 -9.12335938 46.83859375 -9.60546875 46.3046875 C-13.68544676 39.56186671 -14.48162875 32.67993185 -14.375 24.9375 C-14.38660156 24.09123047 -14.39820313 23.24496094 -14.41015625 22.37304688 C-14.38355662 16.6230925 -13.593589 12.16957445 -11 7 C-9.00561523 6.37524414 -9.00561523 6.37524414 -7 6 C-5.10835117 4.49481706 -3.42097099 2.85902319 -1.68359375 1.1796875 C-1.12800781 0.79039062 -0.57242187 0.40109375 0 0 Z " fill="#0E2369" transform="translate(374,355)"/>
<path d="M0 0 C16.81228669 0 16.81228669 0 22 4 C26.00620805 8.26467308 26.41848359 12.71322228 26.3359375 18.359375 C25.77587014 22.76176494 24.09018155 25.84165268 21 29 C14.7355972 33.38803687 7.42349051 32 0 32 C0 21.44 0 10.88 0 0 Z " fill="#FAFBFD" transform="translate(192,369)"/>
<path d="M0 0 C16.55882353 0 16.55882353 0 22.4375 5.125 C24.63497009 9.16834496 24.76392581 12.49602077 24 17 C22.21768357 20.93594878 20.15499449 23.18961788 16.5 25.375 C12 27 12 27 0 27 C0 18.09 0 9.18 0 0 Z " fill="#F9FBFD" transform="translate(192,335)"/>
<path d="M0 0 C2.97 0 5.94 0 9 0 C9 18.15 9 36.3 9 55 C6.03 55 3.06 55 0 55 C0 36.85 0 18.7 0 0 Z " fill="#0B2167" transform="translate(241,353)"/>
<path d="M0 0 C3.41311667 2.52570633 4.66637768 3.99913304 6 8 C6 10.97 6 13.94 6 17 C-1.92 17 -9.84 17 -18 17 C-18 7.60714286 -18 7.60714286 -15 3 C-10.56517288 -1.10197034 -5.75260019 -0.9289384 0 0 Z " fill="#F9FBFC" transform="translate(388,360)"/>
<path d="M0 0 C0.928125 0.20625 1.85625 0.4125 2.8125 0.625 C2.214375 0.91375 1.61625 1.2025 1 1.5 C-1.38077792 2.67242026 -1.38077792 2.67242026 -4.1875 4.625 C-5.1775 4.625 -6.1675 4.625 -7.1875 4.625 C-7.5175 5.615 -7.8475 6.605 -8.1875 7.625 C-9.4559375 7.686875 -9.4559375 7.686875 -10.75 7.75 C-14.78436255 8.77692865 -16.55666259 10.39864234 -19.4765625 13.25 C-21.39933791 14.79524416 -22.82158743 15.05473024 -25.1875 15.625 C-27.9170585 18.10406969 -27.9170585 18.10406969 -30.1875 20.625 C-29.32125 20.728125 -28.455 20.83125 -27.5625 20.9375 C-24.1875 21.625 -24.1875 21.625 -21.39453125 23.03125 C-18.13677085 24.6502101 -14.97813903 25.75815123 -11.5 26.8125 C-10.38238281 27.15667969 -9.26476562 27.50085938 -8.11328125 27.85546875 C-5.20816086 28.75218309 -5.20816086 28.75218309 -2.1875 28.625 C-2.1875 29.285 -2.1875 29.945 -2.1875 30.625 C-1.5275 30.625 -0.8675 30.625 -0.1875 30.625 C-0.1875 31.285 -0.1875 31.945 -0.1875 32.625 C-8.57467647 30.48379693 -16.71287908 27.81096986 -24.875 24.9375 C-26.66067383 24.31391602 -26.66067383 24.31391602 -28.48242188 23.67773438 C-31.38529593 22.66347718 -34.28693813 21.64584668 -37.1875 20.625 C-34.53085531 17.57936339 -31.37360273 15.87526051 -27.875 13.90234375 C-27.26487061 13.55619522 -26.65474121 13.21004669 -26.02612305 12.85340881 C-24.08248717 11.75181732 -22.13517823 10.65692572 -20.1875 9.5625 C-18.24058258 8.46320864 -16.29445249 7.36254393 -14.34887695 6.26087952 C-12.58424447 5.26250659 -10.81756276 4.26775829 -9.05078125 3.27319336 C-2.79356411 -0.3286546 -2.79356411 -0.3286546 0 0 Z " fill="#5C9FCE" transform="translate(250.1875,101.375)"/>
<path d="M0 0 C0 0.33 0 0.66 0 1 C-1.65 1 -3.3 1 -5 1 C-5.20625 1.61875 -5.4125 2.2375 -5.625 2.875 C-7.54788774 5.84673559 -9.68505388 5.98522058 -13 7 C-13.474375 7.474375 -13.94875 7.94875 -14.4375 8.4375 C-16.40711859 10.40711859 -18.60386879 11.15224591 -21.15625 12.1796875 C-24.89447651 13.8428815 -28.11787853 16.11787853 -31 19 C-28.77225769 19.99981463 -26.54239612 20.99425023 -24.30859375 21.98046875 C-22.66056547 22.70827819 -21.01643718 23.44494509 -19.375 24.1875 C-16.87821439 25.12981638 -16.87821439 25.12981638 -13.625 25.4375 C-9.68395796 26.04904101 -6.63135127 27.3860661 -3 29 C-0.22111387 29.69140522 -0.22111387 29.69140522 2 30 C2 30.66 2 31.32 2 32 C-3.05287859 31.39587364 -7.75546029 30.31663818 -12.61328125 28.78515625 C-13.65671944 28.46145302 -13.65671944 28.46145302 -14.72123718 28.13121033 C-16.17835914 27.67747823 -17.63463663 27.2210259 -19.09008789 26.76196289 C-21.32110881 26.05979054 -23.55577731 25.37025363 -25.79101562 24.68164062 C-27.21117269 24.23773088 -28.63110308 23.79309519 -30.05078125 23.34765625 C-30.71846024 23.14237808 -31.38613922 22.93709991 -32.0740509 22.7256012 C-34.97688465 21.80094758 -36.81303147 21.18696853 -39 19 C-38.28457031 18.60208252 -37.56914062 18.20416504 -36.83203125 17.79418945 C-34.13986267 16.29551702 -31.44874861 14.79497195 -28.75830078 13.29321289 C-27.03627108 12.33273062 -25.31306956 11.37435026 -23.58984375 10.41601562 C-18.78741788 7.73395907 -14.0209689 5.05834574 -9.40625 2.0625 C-5.83936952 -0.09726249 -4.08281041 -0.5103513 0 0 Z " fill="#61A5D5" transform="translate(252,203)"/>
<path d="M0 0 C0.59683594 0.33257812 1.19367188 0.66515625 1.80859375 1.0078125 C-1.84328707 2.07956013 -4.45573453 1.77192717 -8.19140625 1.0078125 C-8.19140625 1.6678125 -8.19140625 2.3278125 -8.19140625 3.0078125 C-9.18140625 3.100625 -9.18140625 3.100625 -10.19140625 3.1953125 C-13.73979571 4.15633464 -16.22515222 5.81199993 -19.27734375 7.8125 C-21.4884505 9.1933136 -23.77089889 10.05234907 -26.19140625 11.0078125 C-28.20948175 12.31362606 -30.21194033 13.64418042 -32.19140625 15.0078125 C-32.85140625 15.3378125 -33.51140625 15.6678125 -34.19140625 16.0078125 C-34.52140625 16.9978125 -34.85140625 17.9878125 -35.19140625 19.0078125 C-31.56140625 19.9978125 -27.93140625 20.9878125 -24.19140625 22.0078125 C-24.19140625 22.6678125 -24.19140625 23.3278125 -24.19140625 24.0078125 C-23.34578125 23.9459375 -22.50015625 23.8840625 -21.62890625 23.8203125 C-17.45520782 24.04796878 -14.93707678 25.20989064 -11.19140625 27.0078125 C-11.52140625 27.6678125 -11.85140625 28.3278125 -12.19140625 29.0078125 C-16.287323 27.77074984 -20.38061707 26.52545746 -24.47167969 25.27246094 C-25.86389045 24.84733364 -27.25679358 24.42446693 -28.65039062 24.00390625 C-30.65290482 23.39915837 -32.65279186 22.78633618 -34.65234375 22.171875 C-35.85681152 21.80529785 -37.0612793 21.4387207 -38.30224609 21.06103516 C-41.19140625 20.0078125 -41.19140625 20.0078125 -43.19140625 18.0078125 C-42.16144531 17.40195313 -41.13148438 16.79609375 -40.0703125 16.171875 C-39.0505835 15.57088989 -39.0505835 15.57088989 -38.01025391 14.95776367 C-36.4904702 14.06533063 -34.96794164 13.17755749 -33.44287109 12.29418945 C-29.44078355 9.96723209 -25.51222281 7.58642352 -21.6640625 5.01171875 C-8.50702975 -3.61517163 -8.50702975 -3.61517163 0 0 Z " fill="#61A7D5" transform="translate(359.19140625,52.9921875)"/>
<path d="M0 0 C-1 3 -1 3 -3 5 C-3.62003906 5.1340625 -4.24007813 5.268125 -4.87890625 5.40625 C-8.33666819 6.37416863 -10.37372759 8.95303988 -12.90234375 11.40625 C-15.31182608 13.23691814 -17.04552385 13.53627154 -20 14 C-21.68029994 14.97691857 -23.34928604 15.97388051 -25 17 C-25.66 17 -26.32 17 -27 17 C-26.67 17.66 -26.34 18.32 -26 19 C-23.47266765 19.65555119 -23.47266765 19.65555119 -21 20 C-21 20.66 -21 21.32 -21 22 C-19.948125 22.144375 -18.89625 22.28875 -17.8125 22.4375 C-14.84539451 22.87526966 -11.93205634 23.37804866 -9 24 C-9 24.66 -9 25.32 -9 26 C-7.01432292 26.1953125 -5.02864583 26.390625 -3.04296875 26.5859375 C-1 27 -1 27 2 29 C2 29.66 2 30.32 2 31 C-5.83403051 28.76946204 -13.47425051 26.10146508 -21.125 23.3125 C-22.27226562 22.89677734 -23.41953125 22.48105469 -24.6015625 22.05273438 C-27.40193865 21.03759802 -30.20138366 20.01997571 -33 19 C-30.33238921 15.94632648 -27.15080032 14.20780267 -23.65234375 12.20703125 C-23.03984268 11.85613937 -22.42734161 11.5052475 -21.79627991 11.14372253 C-20.50575398 10.40603094 -19.21384647 9.67075169 -17.9206543 8.93774414 C-15.93724482 7.81235521 -13.95962613 6.67726373 -11.98242188 5.54101562 C-10.72689648 4.82493494 -9.47104804 4.10942029 -8.21484375 3.39453125 C-6.49962524 2.41770386 -6.49962524 2.41770386 -4.74975586 1.42114258 C-2 0 -2 0 0 0 Z " fill="#63A7D5" transform="translate(354,153)"/>
<path d="M0 0 C1.5180247 0.66883266 3.0206526 1.37448859 4.5 2.125 C5.69625 2.516875 6.8925 2.90875 8.125 3.3125 C8.90875 3.580625 9.6925 3.84875 10.5 4.125 C6.25505155 5.59143674 3.7374833 4.31523309 -0.28125 2.71875 C-5.3131641 1.37218144 -9.3704888 4.5121914 -13.6875 6.875 C-14.35225342 7.23698486 -15.01700684 7.59896973 -15.7019043 7.97192383 C-17.0268814 8.69374572 -18.35119758 9.41678229 -19.67480469 10.14111328 C-21.24003773 10.98486517 -22.82533052 11.79121842 -24.4140625 12.58984375 C-29.04135158 14.88073586 -29.04135158 14.88073586 -32.0625 18.9375 C-32.206875 19.659375 -32.35125 20.38125 -32.5 21.125 C-31.18 20.795 -29.86 20.465 -28.5 20.125 C-28.5 20.785 -28.5 21.445 -28.5 22.125 C-26.52 22.455 -24.54 22.785 -22.5 23.125 C-22.5 23.785 -22.5 24.445 -22.5 25.125 C-21.18 25.125 -19.86 25.125 -18.5 25.125 C-18.5 25.785 -18.5 26.445 -18.5 27.125 C-26.00931455 25.2077282 -33.25803759 22.88450985 -40.5 20.125 C-38.42336563 17.89062629 -36.43865611 16.37834944 -33.76171875 14.92578125 C-33.03082031 14.52447998 -32.29992187 14.12317871 -31.546875 13.7097168 C-30.76828125 13.28988525 -29.9896875 12.87005371 -29.1875 12.4375 C-22.25463005 8.70679424 -22.25463005 8.70679424 -15.55078125 4.5859375 C-5.83357633 -1.71014068 -5.83357633 -1.71014068 0 0 Z " fill="#5790C0" transform="translate(149.5,149.875)"/>
<path d="M0 0 C4.20131882 0.6001884 7.9924065 1.61923249 12 3 C14.38776806 35.30789898 14.38776806 35.30789898 14 50 C11.07178145 51.70400669 8.131112 53.38524739 5.1875 55.0625 C4.35412109 55.54783203 3.52074219 56.03316406 2.66210938 56.53320312 C1.85966797 56.98759766 1.05722656 57.44199219 0.23046875 57.91015625 C-0.50792236 58.33433838 -1.24631348 58.75852051 -2.00708008 59.19555664 C-4 60 -4 60 -7 59 C-0.25 55 -0.25 55 2 55 C2 54.34 2 53.68 2 53 C3.98 52.34 5.96 51.68 8 51 C8 50.34 8 49.68 8 49 C8.66 49 9.32 49 10 49 C10 48.34 10 47.68 10 47 C10.99 46.505 10.99 46.505 12 46 C11.34 32.47 10.68 18.94 10 5 C7.03 4.505 7.03 4.505 4 4 C3.67 3.34 3.34 2.68 3 2 C2.01 1.34 1.02 0.68 0 0 Z " fill="#475C96" transform="translate(384,162)"/>
<path d="M0 0 C0 0.99 0 1.98 0 3 C-1.97946592 4.36363208 -3.9819245 5.69418644 -6 7 C-7.83300909 9.10575643 -7.83300909 9.10575643 -9 11 C-9 10.01 -9 9.02 -9 8 C-10.32 9.32 -11.64 10.64 -13 12 C-9.04769224 14.20593921 -6.49274975 15.1247986 -2 15 C-1.34 15.66 -0.68 16.32 0 17 C2.06874034 17.6425235 2.06874034 17.6425235 4 18 C4 18.66 4 19.32 4 20 C4.99 19.67 5.98 19.34 7 19 C9.3125 19.8125 9.3125 19.8125 12 21 C13.60875 21.4640625 13.60875 21.4640625 15.25 21.9375 C16.61125 22.4634375 16.61125 22.4634375 18 23 C18.495 24.485 18.495 24.485 19 26 C10.65935427 23.63799338 2.52539209 20.75494383 -5.625 17.8125 C-6.92829961 17.34416219 -8.2316845 16.87606163 -9.53515625 16.40820312 C-12.69094727 15.27445598 -15.8458626 14.1383377 -19 13 C-19 12.34 -19 11.68 -19 11 C-17.25585938 9.76318359 -17.25585938 9.76318359 -14.84375 8.3984375 C-13.98652344 7.90859375 -13.12929687 7.41875 -12.24609375 6.9140625 C-11.33988281 6.40617187 -10.43367188 5.89828125 -9.5 5.375 C-8.59378906 4.859375 -7.68757813 4.34375 -6.75390625 3.8125 C-4.5063144 2.53492148 -2.25497896 1.26448008 0 0 Z " fill="#61A1CF" transform="translate(133,61)"/>
<path d="M0 0 C2.59341352 0.07530783 3.80569388 0.16002137 6.0625 1.5 C7.44573858 4.00711993 7.55565303 5.4944827 7.0625 8.3125 C4.78983157 10.8473994 3.38575124 11.27291822 0 11.6875 C-2.9375 11.3125 -2.9375 11.3125 -4.8125 10.1875 C-6.44281294 7.47031176 -6.26765665 5.41597254 -5.9375 2.3125 C-3.9375 0.3125 -3.9375 0.3125 0 0 Z " fill="#5CADE1" transform="translate(244.9375,334.6875)"/>
<path d="M0 0 C-0.556875 0.12375 -1.11375 0.2475 -1.6875 0.375 C-6.10162081 1.56800562 -9.40626273 3.19239276 -13 6 C-15.52949971 7.62147417 -17.89075137 8.95680868 -20.6875 10.0625 C-23.1427942 10.88303421 -23.1427942 10.88303421 -25 13 C-27.72226766 15.72226766 -30.36688418 16.78896139 -34 18 C-34.33 18.66 -34.66 19.32 -35 20 C-34.29875 19.95875 -33.5975 19.9175 -32.875 19.875 C-29.61628372 20.01668332 -27.0440053 20.86734686 -24 22 C-24 22.66 -24 23.32 -24 24 C-29.69139902 22.90301833 -34.74567937 21.45946923 -40 19 C-36.47200394 16.04773777 -32.88513098 13.64707849 -28.89453125 11.36328125 C-28.32925217 11.03837204 -27.76397308 10.71346283 -27.18156433 10.37870789 C-25.39411895 9.35266508 -23.60335795 8.3325723 -21.8125 7.3125 C-20.59939378 6.61691232 -19.38650108 5.92095212 -18.17382812 5.22460938 C-7.01467683 -1.1691128 -7.01467683 -1.1691128 0 0 Z " fill="#63A5D3" transform="translate(258,5)"/>
<path d="M0 0 C0.33 0 0.66 0 1 0 C1.2999249 2.73145894 1.53146975 5.44279472 1.68359375 8.1875 C1.92131154 11.05185264 2.30934054 13.53210977 2.91015625 16.3125 C3.72695223 21.16976234 4.28930075 25.48193051 2 30 C-4.77674123 36.36443464 -13.65447794 40.12251815 -22 44 C-24.00289809 44.99418269 -26.00371257 45.99260907 -28 47 C-28 46.01 -28 45.02 -28 44 C-22.25 41 -22.25 41 -20 41 C-20 40.34 -20 39.68 -20 39 C-19.18595703 38.60167969 -19.18595703 38.60167969 -18.35546875 38.1953125 C-17.64003906 37.84210938 -16.92460937 37.48890625 -16.1875 37.125 C-15.47980469 36.77695313 -14.77210938 36.42890625 -14.04296875 36.0703125 C-11.78753582 34.9343514 -11.78753582 34.9343514 -9 33 C-8.01 33 -7.02 33 -6 33 C-5.67 32.34 -5.34 31.68 -5 31 C-4.34 30.649375 -3.68 30.29875 -3 29.9375 C0.54469691 26.50357487 -0.06614775 21.22805525 0.07470703 16.48364258 C0.09763349 13.96734126 0.0878773 11.45375647 0.0625 8.9375 C0.05798828 8.07189453 0.05347656 7.20628906 0.04882812 6.31445312 C0.03719913 4.20960461 0.01927073 2.10479242 0 0 Z " fill="#4E6BA2" transform="translate(291,132)"/>
<path d="M0 0 C2 3 2 3 2 5 C-3.53393434 8.49733414 -10.72750712 7.701484 -17 7 C-19.84836308 5.62144991 -20.95944942 4.47339464 -23 2 C-22.01 2 -21.02 2 -20 2 C-19.34 2.66 -18.68 3.32 -18 4 C-15.42938689 4.64767793 -15.42938689 4.64767793 -13 5 C-12.67 4.01 -12.34 3.02 -12 2 C-8.04 1.34 -4.08 0.68 0 0 Z " fill="#172A6A" transform="translate(351,402)"/>
<path d="M0 0 C0.33 0 0.66 0 1 0 C1.28632439 2.35706325 1.53239736 4.70741263 1.7265625 7.07421875 C1.9556525 9.99631879 1.9556525 9.99631879 2.5234375 12.83203125 C2.91884937 15.9733589 3.00582549 17.98252352 2 21 C-1.96192429 24.4834592 -6.29211374 26.66800506 -11 29 C-12.40235499 29.82231115 -13.80005557 30.65277329 -15.1875 31.5 C-18 33 -18 33 -20 33 C-20 32.34 -20 31.68 -20 31 C-19.01 31 -18.02 31 -17 31 C-16.67 30.01 -16.34 29.02 -16 28 C-15.01 28 -14.02 28 -13 28 C-13 27.34 -13 26.68 -13 26 C-12.34 26 -11.68 26 -11 26 C-10.67 25.34 -10.34 24.68 -10 24 C-9.236875 23.896875 -8.47375 23.79375 -7.6875 23.6875 C-4.04799058 22.75646271 -2.94396828 21.14025645 -1 18 C-1.33 17.01 -1.66 16.02 -2 15 C-1.71325582 12.99279077 -1.36920191 10.99369031 -1 9 C-0.63278721 6.00354362 -0.31359466 3.00250208 0 0 Z " fill="#6070A2" transform="translate(291,240)"/>
<path d="M0 0 C0.33 0 0.66 0 1 0 C1.34166314 4.22853564 1.67174609 8.45790398 2 12.6875 C2.09539062 13.86634766 2.19078125 15.04519531 2.2890625 16.25976562 C2.89808622 24.19882489 3.08877995 32.03754791 3 40 C-0.96 41.98 -4.92 43.96 -9 46 C-9 45.34 -9 44.68 -9 44 C-8.34 44 -7.68 44 -7 44 C-6.67 42.68 -6.34 41.36 -6 40 C-4.35 40 -2.7 40 -1 40 C0.27385127 36.1784462 0.12353188 32.5931553 0.09765625 28.61328125 C0.0962413 27.79627243 0.09482635 26.97926361 0.09336853 26.13749695 C0.08777294 23.52912732 0.07522129 20.92084366 0.0625 18.3125 C0.05748443 16.54362103 0.05292162 14.77474072 0.04882812 13.00585938 C0.03780496 8.67053981 0.02054338 4.33528448 0 0 Z " fill="#4D639A" transform="translate(185,170)"/>
<path d="M0 0 C0.99 0.495 0.99 0.495 2 1 C3.18532445 5.03588065 3.10119237 8.98367422 3.0625 13.1640625 C3.05871338 13.83795013 3.05492676 14.51183777 3.05102539 15.20614624 C3.0388732 17.3458312 3.02023968 19.4853772 3 21.625 C2.97340392 24.45051719 2.95342242 27.27596729 2.9375 30.1015625 C2.92589844 31.35275879 2.91429687 32.60395508 2.90234375 33.89306641 C2.85272714 37.03529418 2.85272714 37.03529418 4 40 C5.32 39.34 6.64 38.68 8 38 C8.33 39.32 8.66 40.64 9 42 C4.25 45 4.25 45 2 45 C0.9664225 38.82459159 0.67565588 32.68921413 0.4375 26.4375 C0.3950415 25.37789062 0.35258301 24.31828125 0.30883789 23.2265625 C0.01501604 15.47959778 -0.12284266 7.75273689 0 0 Z " fill="#5787B9" transform="translate(361,186)"/>
<path d="M0 0 C-0.598125 0.28875 -1.19625 0.5775 -1.8125 0.875 C-4.19327792 2.04742026 -4.19327792 2.04742026 -7 4 C-7.99 4 -8.98 4 -10 4 C-10.33 4.99 -10.66 5.98 -11 7 C-12.2684375 7.061875 -12.2684375 7.061875 -13.5625 7.125 C-17.62422452 8.15889351 -19.31917233 9.84508674 -22.3203125 12.6328125 C-24.44824288 14.36484885 -26.28015508 14.83516091 -29 15 C-26.79411988 9.4091048 -21.74872329 7.52324948 -16.75 4.6875 C-15.80769531 4.12482422 -14.86539063 3.56214844 -13.89453125 2.98242188 C-5.29380109 -1.94520543 -5.29380109 -1.94520543 0 0 Z " fill="#5191C6" transform="translate(253,102)"/>
<path d="M0 0 C0.33 0.66 0.66 1.32 1 2 C0.01 2.66 -0.98 3.32 -2 4 C-3.20450304 6.55183404 -3.20450304 6.55183404 -4 9 C-2.68 8.67 -1.36 8.34 0 8 C0 8.66 0 9.32 0 10 C2.97 10.495 2.97 10.495 6 11 C6 11.66 6 12.32 6 13 C7.32 13 8.64 13 10 13 C10 13.66 10 14.32 10 15 C2.49068545 13.0827282 -4.75803759 10.75950985 -12 8 C-9.69716746 5.45868642 -7.32686207 3.92889705 -4.3125 2.3125 C-3.50425781 1.87550781 -2.69601563 1.43851563 -1.86328125 0.98828125 C-1.24839844 0.66214844 -0.63351563 0.33601562 0 0 Z " fill="#65AAD7" transform="translate(121,162)"/>
<path d="M0 0 C0.66 0 1.32 0 2 0 C3.66200647 3.32401294 3.36747604 7.06429378 3.53515625 10.7265625 C3.59962196 12.02078629 3.59962196 12.02078629 3.66539001 13.34115601 C3.80195339 16.10225039 3.93229501 18.86359916 4.0625 21.625 C4.15388786 23.4948117 4.24567958 25.36460371 4.33789062 27.234375 C4.56328418 31.82270113 4.7830975 36.41126495 5 41 C6.65 41.33 8.3 41.66 10 42 C7.79038253 44.54106009 6.26011642 45.30621489 3 46 C2.94465088 44.9262915 2.88930176 43.85258301 2.83227539 42.74633789 C2.62433159 38.7261764 2.41288836 34.70620502 2.20043945 30.6862793 C2.10932952 28.95325558 2.01914252 27.22018306 1.92993164 25.48706055 C1.80082597 22.98212197 1.66829597 20.47738328 1.53515625 17.97265625 C1.49656998 17.20977798 1.4579837 16.44689972 1.41822815 15.66090393 C1.13476025 10.41165847 0.61832404 5.22064803 0 0 Z " fill="#5583B3" transform="translate(254,235)"/>
<path d="M0 0 C0.33 0 0.66 0 1 0 C3.23593697 14.33395304 3.21712296 28.51789833 3 43 C3.99 43.33 4.98 43.66 6 44 C4.02 44.495 4.02 44.495 2 45 C0.74241619 29.97923168 -0.35478937 15.07854832 0 0 Z " fill="#5684B6" transform="translate(256,136)"/>
<path d="M0 0 C0.33 0 0.66 0 1 0 C1.82221116 5.23036845 2.28671321 10.40168081 2.5625 15.6875 C2.6049585 16.47044434 2.64741699 17.25338867 2.69116211 18.06005859 C3.01298253 24.37602718 3.11159988 30.67600662 3 37 C2.34 37 1.68 37 1 37 C-0.21077701 33.36766898 -0.12444164 30.04878013 -0.09765625 26.26953125 C-0.0962413 25.51911057 -0.09482635 24.76868988 -0.09336853 23.99552917 C-0.0877756 21.6011454 -0.07522444 19.20685547 -0.0625 16.8125 C-0.05748408 15.18815239 -0.05292134 13.56380332 -0.04882812 11.93945312 C-0.03780848 7.95959931 -0.02054873 3.97981556 0 0 Z " fill="#54689C" transform="translate(393,73)"/>
<path d="M0 0 C0.33 0 0.66 0 1 0 C1 5.61 1 11.22 1 17 C-1.930894 18.69997827 -4.86870233 20.3851416 -7.8125 22.0625 C-8.64587891 22.54783203 -9.47925781 23.03316406 -10.33789062 23.53320312 C-11.14033203 23.98759766 -11.94277344 24.44199219 -12.76953125 24.91015625 C-13.87711792 25.54642944 -13.87711792 25.54642944 -15.00708008 26.19555664 C-17 27 -17 27 -20 26 C-13.25 22 -13.25 22 -11 22 C-11 21.34 -11 20.68 -11 20 C-9.02 19.34 -7.04 18.68 -5 18 C-5 17.34 -5 16.68 -5 16 C-4.34 16 -3.68 16 -3 16 C-3 15.34 -3 14.68 -3 14 C-2.34 13.67 -1.68 13.34 -1 13 C-0.53045739 9.95418731 -0.53045739 9.95418731 -0.375 6.4375 C-0.30023438 5.23996094 -0.22546875 4.04242188 -0.1484375 2.80859375 C-0.09945313 1.88175781 -0.05046875 0.95492187 0 0 Z " fill="#516AA0" transform="translate(397,195)"/>
<path d="M0 0 C-1 3 -1 3 -3 5 C-3.62003906 5.13277344 -4.24007813 5.26554688 -4.87890625 5.40234375 C-8.35108588 6.38069271 -10.38542216 9.01700758 -12.90234375 11.50390625 C-15.4578778 13.32656834 -16.92847578 13.29379797 -20 13 C-18.64579084 9.75639549 -17.44600841 8.33059726 -14.375 6.640625 C-13.66859375 6.24746094 -12.9621875 5.85429687 -12.234375 5.44921875 C-11.49703125 5.05347656 -10.7596875 4.65773437 -10 4.25 C-9.26265625 3.83878906 -8.5253125 3.42757812 -7.765625 3.00390625 C-2.29671927 0 -2.29671927 0 0 0 Z " fill="#559BD1" transform="translate(354,153)"/>
<path d="M0 0 C0.33 0 0.66 0 1 0 C1.86464117 5.94440807 2.2176237 11.87502865 2.375 17.875 C2.41302734 18.62450928 2.45105469 19.37401855 2.49023438 20.14624023 C2.5234375 22.3046875 2.5234375 22.3046875 2 26 C-0.3359375 28.0703125 -0.3359375 28.0703125 -3 29 C-3.99 28.67 -4.98 28.34 -6 28 C-4.68 27.67 -3.36 27.34 -2 27 C-1.00179696 18.01617265 -0.49195343 9.02263527 0 0 Z " fill="#5668A0" transform="translate(291,36)"/>
<path d="M0 0 C-6.5297913 4.05478976 -13.075316 8.08077821 -19.6875 12 C-20.66074219 12.5775 -21.63398438 13.155 -22.63671875 13.75 C-25 15 -25 15 -27 15 C-27 14.01 -27 13.02 -27 12 C-25.72942818 11.52014033 -24.45853152 11.0411407 -23.1875 10.5625 C-22.47980469 10.29566406 -21.77210938 10.02882813 -21.04296875 9.75390625 C-19.37327604 9.13774814 -17.68842296 8.56280765 -16 8 C-16 7.34 -16 6.68 -16 6 C-15.21625 5.71125 -14.4325 5.4225 -13.625 5.125 C-10.90328368 4.15087746 -10.90328368 4.15087746 -9 2 C-3.4921875 -1.1640625 -3.4921875 -1.1640625 0 0 Z " fill="#4D6BA3" transform="translate(393,112)"/>
<path d="M0 0 C0.66 0.33 1.32 0.66 2 1 C1.02885254 1.70044434 1.02885254 1.70044434 0.03808594 2.41503906 C-2.96910534 6.22914319 -2.60273947 9.62736984 -2.609375 14.359375 C-2.62591125 15.26375305 -2.64244751 16.1681311 -2.65948486 17.09991455 C-2.70799979 19.98334521 -2.72934344 22.86624834 -2.75 25.75 C-2.77815678 27.70705784 -2.80808379 29.66409107 -2.83984375 31.62109375 C-2.91375969 36.41401908 -2.96331298 41.20665096 -3 46 C-3.33 46 -3.66 46 -4 46 C-4.09878601 39.93111949 -4.17142949 33.86270561 -4.21972656 27.79321289 C-4.23985731 25.72802582 -4.26716445 23.66289584 -4.30175781 21.59790039 C-4.35021162 18.63152999 -4.37295385 15.66591228 -4.390625 12.69921875 C-4.41127014 11.7741301 -4.43191528 10.84904144 -4.45318604 9.8959198 C-4.45544041 3.47384038 -4.45544041 3.47384038 -1.97558594 0.89379883 C-1.32364258 0.59884521 -0.67169922 0.3038916 0 0 Z " fill="#F1F9FD" transform="translate(479,362)"/>
<path d="M0 0 C-0.556875 0.12375 -1.11375 0.2475 -1.6875 0.375 C-6.10162081 1.56800562 -9.40626273 3.19239276 -13 6 C-16.21902385 8.06347683 -19.3428624 9.84511444 -23 11 C-23.99 10.67 -24.98 10.34 -26 10 C-22.99772996 8.11443617 -19.9707887 6.27267319 -16.9375 4.4375 C-15.66616211 3.63795898 -15.66616211 3.63795898 -14.36914062 2.82226562 C-9.06062687 -0.35464415 -6.04326539 -1.76296073 0 0 Z " fill="#5792C3" transform="translate(258,5)"/>
<path d="M0 0 C0.33 0 0.66 0 1 0 C2.18135474 6.48349807 2.11322974 12.86214507 2.0625 19.4375 C2.05798828 20.55060547 2.05347656 21.66371094 2.04882812 22.81054688 C2.03711193 25.54042101 2.02070699 28.27018174 2 31 C3.65 31 5.3 31 7 31 C5.6875 32.5 5.6875 32.5 4 34 C3.01 34 2.02 34 1 34 C-0.19388403 10.21122564 -0.19388403 10.21122564 0 0 Z " fill="#517EAF" transform="translate(359,96)"/>
<path d="M0 0 C0.33 0 0.66 0 1 0 C2.09945892 10.01292948 2.10055982 19.94401799 2 30 C1.01 29.67 0.02 29.34 -1 29 C-0.835 27.741875 -0.67 26.48375 -0.5 25.1875 C0.35915069 16.82590662 0.07756426 8.39417649 0 0 Z " fill="#485C93" transform="translate(291,132)"/>
<path d="M0 0 C5 2 5 2 10 4 C10 4.33 10 4.66 10 5 C7.69 5 5.38 5 3 5 C3 5.66 3 6.32 3 7 C3.66 7.66 4.32 8.32 5 9 C2 10 2 10 -0.1875 9.0625 C-0.785625 8.711875 -1.38375 8.36125 -2 8 C-1.125 2.25 -1.125 2.25 0 0 Z " fill="#1B2C68" transform="translate(4,396)"/>
<path d="M0 0 C-3.65188082 1.07174763 -6.26432828 0.76411467 -10 0 C-10 0.66 -10 1.32 -10 2 C-10.7425 2.103125 -11.485 2.20625 -12.25 2.3125 C-15.17014018 3.04253504 -16.73187554 4.06789398 -19 6 C-19.66 5.67 -20.32 5.34 -21 5 C-13.4265839 -3.00618273 -10.29931649 -3.51727971 0 0 Z " fill="#568EC2" transform="translate(361,54)"/>
<path d="M0 0 C0 0.99 0 1.98 0 3 C-1.97946592 4.36363208 -3.9819245 5.69418644 -6 7 C-7.83300909 9.10575643 -7.83300909 9.10575643 -9 11 C-9 10.01 -9 9.02 -9 8 C-9.598125 8.66 -10.19625 9.32 -10.8125 10 C-13 12 -13 12 -16 12 C-14.53534437 7.42037254 -10.85779031 5.87941264 -6.875 3.75 C-6.21628906 3.38648437 -5.55757812 3.02296875 -4.87890625 2.6484375 C-3.25799664 1.75576264 -1.62968964 0.87654325 0 0 Z " fill="#54A2D9" transform="translate(133,61)"/>
<path d="M0 0 C0.99 0.495 0.99 0.495 2 1 C3.06309539 5.43842325 3.07736269 9.70494199 3 14.25 C2.74247264 18.78958368 2.74247264 18.78958368 4 23 C3.01 23.33 2.02 23.66 1 24 C-0.03387512 15.9874678 -0.10466648 8.07094823 0 0 Z " fill="#5180B3" transform="translate(257,58)"/>
<path d="M0 0 C0.99 0.33 1.98 0.66 3 1 C2.39816251 3.02045442 1.72693904 5.02111039 1 7 C-1 8 -1 8 -4.0390625 7.00390625 C-5.22242188 6.52824219 -6.40578125 6.05257813 -7.625 5.5625 C-8.81351563 5.08941406 -10.00203125 4.61632812 -11.2265625 4.12890625 C-12.14179688 3.75636719 -13.05703125 3.38382812 -14 3 C-14 2.67 -14 2.34 -14 2 C-12.00045254 1.95745644 -9.99958364 1.95919217 -8 2 C-7.67 2.33 -7.34 2.66 -7 3 C-4.67182036 3.36760731 -2.3381615 3.70241581 0 4 C0 2.68 0 1.36 0 0 Z " fill="#233369" transform="translate(43,331)"/>
<path d="M0 0 C0 0.33 0 0.66 0 1 C-1.65 1 -3.3 1 -5 1 C-5.20625 1.61875 -5.4125 2.2375 -5.625 2.875 C-7.54788774 5.84673559 -9.68505388 5.98522058 -13 7 C-14.01868662 7.98095748 -15.02351983 8.97702078 -16 10 C-16.99 10 -17.98 10 -19 10 C-17.66704027 6.00112081 -15.90650546 5.42116003 -12.3125 3.3125 C-10.75982422 2.37857422 -10.75982422 2.37857422 -9.17578125 1.42578125 C-5.81068369 -0.08499441 -3.64098665 -0.28931378 0 0 Z " fill="#5691C5" transform="translate(252,203)"/>
<path d="M0 0 C0.66 0 1.32 0 2 0 C2 0.66 2 1.32 2 2 C-0.62214328 3.50519387 -3.24744208 5.00431319 -5.875 6.5 C-6.62136719 6.92925781 -7.36773437 7.35851562 -8.13671875 7.80078125 C-8.85214844 8.20683594 -9.56757813 8.61289062 -10.3046875 9.03125 C-10.96452637 9.40830078 -11.62436523 9.78535156 -12.30419922 10.17382812 C-14 11 -14 11 -16 11 C-16 10.34 -16 9.68 -16 9 C-15.01 9 -14.02 9 -13 9 C-12.67 8.01 -12.34 7.02 -12 6 C-11.01 6 -10.02 6 -9 6 C-9 5.34 -9 4.68 -9 4 C-8.34 4 -7.68 4 -7 4 C-6.67 3.34 -6.34 2.68 -6 2 C-4.34178227 1.62690101 -2.67422986 1.29299023 -1 1 C-0.67 0.67 -0.34 0.34 0 0 Z " fill="#4D6CA4" transform="translate(287,262)"/>
<path d="M0 0 C14.58536585 1.58536585 14.58536585 1.58536585 19 6 C14.73493961 7.4216868 11.79962257 5.65386682 7.8125 4.0625 C7.06291016 3.77181641 6.31332031 3.48113281 5.54101562 3.18164062 C3.69075523 2.46274964 1.84493352 1.73245347 0 1 C0 0.67 0 0.34 0 0 Z " fill="#5A91C1" transform="translate(132,177)"/>
<path d="M0 0 C0.33 0.66 0.66 1.32 1 2 C-1.39405585 4.77206467 -3.63232194 5.6685924 -7 7 C-9.02318078 8.29788956 -11.02866014 9.62464661 -13 11 C-12.87890625 9.234375 -12.87890625 9.234375 -12 7 C-9.27734375 5.078125 -9.27734375 5.078125 -5.9375 3.25 C-4.83277344 2.63640625 -3.72804688 2.0228125 -2.58984375 1.390625 C-1.73519531 0.93171875 -0.88054687 0.4728125 0 0 Z " fill="#589BCD" transform="translate(340,57)"/>
<path d="M0 0 C0 0.33 0 0.66 0 1 C-0.60328125 1.19335938 -1.2065625 1.38671875 -1.828125 1.5859375 C-2.62734375 1.84632812 -3.4265625 2.10671875 -4.25 2.375 C-5.03890625 2.63023438 -5.8278125 2.88546875 -6.640625 3.1484375 C-10.00179669 4.36157563 -12.45848262 5.45848262 -15 8 C-15.99 7.34 -16.98 6.68 -18 6 C-16.13818673 4.79193022 -14.25988465 3.60924703 -12.375 2.4375 C-10.80878906 1.44556641 -10.80878906 1.44556641 -9.2109375 0.43359375 C-5.54667409 -1.20239733 -3.80926839 -1.04669086 0 0 Z " fill="#578FC1" transform="translate(153,54)"/>
<path d="M0 0 C3.3 0 6.6 0 10 0 C10 0.66 10 1.32 10 2 C8.35 2.33 6.7 2.66 5 3 C4.67 4.98 4.34 6.96 4 9 C1.3144406 6.3144406 0.93950026 3.62378672 0 0 Z " fill="#29386D" transform="translate(53,353)"/>
<path d="M0 0 C1.48011371 0.30798326 2.95907325 0.621518 4.4375 0.9375 C5.26121094 1.11152344 6.08492188 1.28554687 6.93359375 1.46484375 C9 2 9 2 10 3 C10.07244053 5.01964199 10.08377188 7.04167124 10.0625 9.0625 C10.05347656 10.16722656 10.04445313 11.27195312 10.03515625 12.41015625 C10.02355469 13.26480469 10.01195312 14.11945313 10 15 C9.34 14.67 8.68 14.34 8 14 C8 10.7 8 7.4 8 4 C6.865625 3.71125 5.73125 3.4225 4.5625 3.125 C3.386875 2.75375 2.21125 2.3825 1 2 C0.67 1.34 0.34 0.68 0 0 Z " fill="#475E96" transform="translate(281,113)"/>
<path d="M0 0 C0 3.51716303 -0.82445585 4.37121748 -3 7 C-2.67 7.66 -2.34 8.32 -2 9 C-4.64 8.34 -7.28 7.68 -10 7 C-7.2180632 3.72713318 -3.72045933 2.03572303 0 0 Z " fill="#64AAD8" transform="translate(223,115)"/>
<path d="M0 0 C5.11365014 1.0681847 10.07227969 2.23107476 15 4 C15 4.66 15 5.32 15 6 C9.54520815 5.43179252 5.08940744 4.05362055 0 2 C0 1.34 0 0.68 0 0 Z " fill="#5991C2" transform="translate(239,229)"/>
<path d="M0 0 C1.98 0 3.96 0 6 0 C6 0.66 6 1.32 6 2 C7.98567708 2.1953125 9.97135417 2.390625 11.95703125 2.5859375 C14 3 14 3 17 5 C17 5.66 17 6.32 17 7 C11.14340094 5.33846988 5.5409866 3.52958084 0 1 C0 0.67 0 0.34 0 0 Z " fill="#5B94C5" transform="translate(339,177)"/>
<path d="M0 0 C2 0.66666667 4 1.33333333 6 2 C7.093125 2.309375 8.18625 2.61875 9.3125 2.9375 C10.6428125 3.4634375 10.6428125 3.4634375 12 4 C12.33 4.99 12.66 5.98 13 7 C11.41531323 6.54636829 9.83230076 6.08688548 8.25 5.625 C7.36828125 5.36976562 6.4865625 5.11453125 5.578125 4.8515625 C3.23919428 4.0790066 1.16557438 3.16374324 -1 2 C-0.67 1.34 -0.34 0.68 0 0 Z " fill="#548CC1" transform="translate(139,80)"/>
<path d="M0 0 C4.86896303 0.59619955 9.32790951 1.56976822 14 3 C13.67 5.31 13.34 7.62 13 10 C12.67 10 12.34 10 12 10 C12 8.02 12 6.04 12 4 C10.700625 4.0928125 10.700625 4.0928125 9.375 4.1875 C5.55800967 3.97544498 3.28922464 2.87955693 0 1 C0 0.67 0 0.34 0 0 Z " fill="#4B659E" transform="translate(379,61)"/>
<path d="M0 0 C0.99 0.495 0.99 0.495 2 1 C2 1.66 2 2.32 2 3 C3.32 2.34 4.64 1.68 6 1 C6.33 2.32 6.66 3.64 7 5 C2.25 8 2.25 8 0 8 C0 5.36 0 2.72 0 0 Z " fill="#4E7DB1" transform="translate(363,223)"/>
<path d="M0 0 C0 0.99 0 1.98 0 3 C-3.52381313 6.44186399 -5.95030484 8.55443866 -11 9 C-9.55613418 5.28720216 -7.87763608 4.0513557 -4.375 2.25 C-3.55773437 1.82203125 -2.74046875 1.3940625 -1.8984375 0.953125 C-0.95871094 0.48132813 -0.95871094 0.48132813 0 0 Z " fill="#5A9DCF" transform="translate(235,108)"/>
<path d="M0 0 C1.65 0 3.3 0 5 0 C5 0.66 5 1.32 5 2 C6.2684375 1.9071875 6.2684375 1.9071875 7.5625 1.8125 C11.73619843 2.04015628 14.25432947 3.20207814 18 5 C17.67 5.66 17.34 6.32 17 7 C14.35110382 6.2175752 11.70620175 5.42462432 9.0625 4.625 C8.30775391 4.40328125 7.55300781 4.1815625 6.77539062 3.953125 C4.83152088 3.36037548 2.91313548 2.68548828 1 2 C0.67 1.34 0.34 0.68 0 0 Z " fill="#5C99C7" transform="translate(330,75)"/>
<path d="M0 0 C0.66 0.33 1.32 0.66 2 1 C0.88200014 2.33920838 -0.24461897 3.67122556 -1.375 5 C-2.00148438 5.7425 -2.62796875 6.485 -3.2734375 7.25 C-4.12808594 8.11625 -4.12808594 8.11625 -5 9 C-5.66 9 -6.32 9 -7 9 C-6.82374165 6.62051228 -6.30280227 5.29774151 -4.59765625 3.62109375 C-3.09350908 2.37884514 -1.54870149 1.18623944 0 0 Z " fill="#202F6E" transform="translate(371,354)"/>
<path d="M0 0 C0.33 0.66 0.66 1.32 1 2 C4.02934491 2.65772428 4.02934491 2.65772428 7 3 C7 3.66 7 4.32 7 5 C8.32 5 9.64 5 11 5 C11 5.66 11 6.32 11 7 C9.22604492 6.57533503 7.45589369 6.1347591 5.6875 5.6875 C4.70136719 5.44386719 3.71523437 5.20023438 2.69921875 4.94921875 C-0.00141012 3.99950411 -1.20956216 3.18152323 -3 1 C-2.01 0.67 -1.02 0.34 0 0 Z " fill="#60A2D1" transform="translate(120,170)"/>
<path d="M0 0 C0.33 0 0.66 0 1 0 C1 3.3 1 6.6 1 10 C2.98 9.34 4.96 8.68 7 8 C4.40503742 11.00469351 3.0785301 11.36858796 -1 13 C-0.67 8.71 -0.34 4.42 0 0 Z " fill="#5E88B5" transform="translate(156,120)"/>
<path d="M0 0 C0.66 0.33 1.32 0.66 2 1 C1.34 3.31 0.68 5.62 0 8 C-3.63 7.67 -7.26 7.34 -11 7 C-11 6.67 -11 6.34 -11 6 C-8.03 6 -5.06 6 -2 6 C-2.33 4.68 -2.66 3.36 -3 2 C-2.01 2 -1.02 2 0 2 C0 1.34 0 0.68 0 0 Z " fill="#334582" transform="translate(390,353)"/>
<path d="M0 0 C0.99 0.99 1.98 1.98 3 3 C2.01 5.31 1.02 7.62 0 10 C-2.475 9.01 -2.475 9.01 -5 8 C-4.175 7.4225 -3.35 6.845 -2.5 6.25 C-1.675 5.5075 -0.85 4.765 0 4 C0 2.68 0 1.36 0 0 Z " fill="#203171" transform="translate(276,397)"/>
<path d="M0 0 C3.3 0 6.6 0 10 0 C9.67 1.65 9.34 3.3 9 5 C8.67 4.01 8.34 3.02 8 2 C6.02 2 4.04 2 2 2 C2 2.66 2 3.32 2 4 C1.34 4 0.68 4 0 4 C0 2.68 0 1.36 0 0 Z " fill="#2D3C6E" transform="translate(89,353)"/>
<path d="M0 0 C-1 3 -1 3 -3 5 C-4.9375 5.5625 -4.9375 5.5625 -7 6 C-7.99 6.33 -8.98 6.66 -10 7 C-8.60449526 2.81348579 -4.64858615 0 0 0 Z " fill="#5290C5" transform="translate(354,153)"/>
<path d="M0 0 C6.17222879 1.24028238 12.06682122 2.89603589 18 5 C18 5.33 18 5.66 18 6 C11.83197881 6.52493797 7.3929829 5.0095261 2 2 C1.34 1.34 0.68 0.68 0 0 Z " fill="#E4F7FD" transform="translate(233,129)"/>
<path d="M0 0 C1.0219601 3.18184739 0.94954615 5.32243328 0.1875 8.5625 C0.01605469 9.32691406 -0.15539062 10.09132813 -0.33203125 10.87890625 C-1 13 -1 13 -3 16 C-4.31225809 12.06322574 -3.3393954 10.2205738 -2.0625 6.3125 C-1.68222656 5.13300781 -1.30195313 3.95351563 -0.91015625 2.73828125 C-0.60980469 1.83464844 -0.30945313 0.93101562 0 0 Z " fill="#293A72" transform="translate(137,358)"/>
<path d="M0 0 C1.32 0 2.64 0 4 0 C4 4.29 4 8.58 4 13 C2.06622327 10.09933491 1.72492386 9.20923972 1.4375 5.9375 C1.25413459 2.22018139 1.25413459 2.22018139 0 0 Z " fill="#6677A4" transform="translate(287,215)"/>
<path d="M0 0 C4.19469571 0.59924224 8.00999834 1.57499941 12 3 C11.67 4.32 11.34 5.64 11 7 C11 6.34 11 5.68 11 5 C9.865625 4.87625 8.73125 4.7525 7.5625 4.625 C6.386875 4.41875 5.21125 4.2125 4 4 C3.67 3.34 3.34 2.68 3 2 C2.01 1.34 1.02 0.68 0 0 Z " fill="#4E659C" transform="translate(384,162)"/>
<path d="M0 0 C3.3 0.33 6.6 0.66 10 1 C10 1.66 10 2.32 10 3 C10.66 3 11.32 3 12 3 C12 3.66 12 4.32 12 5 C10.18504338 4.55149342 8.37306866 4.09090429 6.5625 3.625 C5.55316406 3.36976563 4.54382813 3.11453125 3.50390625 2.8515625 C1 2 1 2 0 0 Z " fill="#5891C2" transform="translate(238,129)"/>
<path d="M0 0 C0.33 0 0.66 0 1 0 C1.05382106 2.62527189 1.09358313 5.24944713 1.125 7.875 C1.14175781 8.62136719 1.15851563 9.36773437 1.17578125 10.13671875 C1.1933959 12.09194461 1.10320189 14.04742021 1 16 C0.34 16.66 -0.32 17.32 -1 18 C-2.1989995 14.40300151 -1.68787773 12.71453976 -1 9 C-0.63278721 6.00354362 -0.31359466 3.00250208 0 0 Z " fill="#465B96" transform="translate(291,240)"/>
<path d="M0 0 C0.99 0.33 1.98 0.66 3 1 C0.81482901 3.40575607 -1.25919671 4.79535581 -4.1875 6.1875 C-4.90292969 6.53167969 -5.61835938 6.87585938 -6.35546875 7.23046875 C-6.89816406 7.48441406 -7.44085938 7.73835937 -8 8 C-8 7.01 -8 6.02 -8 5 C-2.25 2 -2.25 2 0 2 C0 1.34 0 0.68 0 0 Z " fill="#557BAD" transform="translate(271,171)"/>
<path d="M0 0 C-5.94 3.465 -5.94 3.465 -12 7 C-12.33 6.34 -12.66 5.68 -13 5 C-12.360625 4.71125 -11.72125 4.4225 -11.0625 4.125 C-8.84793921 3.17176549 -8.84793921 3.17176549 -8 1 C-2.47058824 -1.23529412 -2.47058824 -1.23529412 0 0 Z " fill="#E2F8FD" transform="translate(136,60)"/>
<path d="M0 0 C3.3 0 6.6 0 10 0 C9.67 0.99 9.34 1.98 9 3 C6.03 3 3.06 3 0 3 C0 2.01 0 1.02 0 0 Z " fill="#364473" transform="translate(139,353)"/>
<path d="M0 0 C5.23175837 -0.38281159 8.37802694 0.78145293 13 3 C13 3.66 13 4.32 13 5 C11.20620902 4.55005243 9.41501072 4.08975857 7.625 3.625 C6.62726563 3.36976563 5.62953125 3.11453125 4.6015625 2.8515625 C2 2 2 2 0 0 Z " fill="#629FCD" transform="translate(226,226)"/>
<path d="M0 0 C0.66 0.33 1.32 0.66 2 1 C-2.625 6.875 -2.625 6.875 -6 8 C-6.33 7.01 -6.66 6.02 -7 5 C-5.68 5 -4.36 5 -3 5 C-3 4.01 -3 3.02 -3 2 C-2.01 2 -1.02 2 0 2 C0 1.34 0 0.68 0 0 Z " fill="#192A64" transform="translate(221,356)"/>
<path d="M0 0 C0.99 0.33 1.98 0.66 3 1 C2.67 1.99 2.34 2.98 2 4 C2.99 4.33 3.98 4.66 5 5 C3.35 5.66 1.7 6.32 0 7 C0 5.68 0 4.36 0 3 C-0.66 2.67 -1.32 2.34 -2 2 C-1.34 1.34 -0.68 0.68 0 0 Z " fill="#182B68" transform="translate(478,356)"/>
<path d="M0 0 C1.485 0.99 1.485 0.99 3 2 C4.32567199 2.68177416 5.65753688 3.35191436 7 4 C2.25 7 2.25 7 0 7 C0 4.69 0 2.38 0 0 Z " fill="#6890BA" transform="translate(257,274)"/>
<path d="M0 0 C-1.25125384 3.75376152 -2.5652404 4.24073289 -6 6 C-6.66 6 -7.32 6 -8 6 C-6.98565881 3.46414701 -6.34981128 2.21863205 -4 0.75 C-2 0 -2 0 0 0 Z " fill="#4F8DC3" transform="translate(144,150)"/>
<path d="M0 0 C-4.95 2.475 -4.95 2.475 -10 5 C-10.33 4.34 -10.66 3.68 -11 3 C-10.34 3 -9.68 3 -9 3 C-9 2.34 -9 1.68 -9 1 C-3.375 -1.125 -3.375 -1.125 0 0 Z " fill="#5479AC" transform="translate(280,70)"/>
<path d="M0 0 C0.33 0 0.66 0 1 0 C1 1.98 1 3.96 1 6 C2.65 6 4.3 6 6 6 C4.6875 7.5 4.6875 7.5 3 9 C2.01 9 1.02 9 0 9 C0 6.03 0 3.06 0 0 Z " fill="#7198C3" transform="translate(360,121)"/>
<path d="M0 0 C0.33 0 0.66 0 1 0 C1 3.96 1 7.92 1 12 C0.34 12 -0.32 12 -1 12 C-2.09898702 8.70303895 -1.87124444 7.59505097 -1.0625 4.3125 C-0.86785156 3.50425781 -0.67320312 2.69601563 -0.47265625 1.86328125 C-0.31667969 1.24839844 -0.16070312 0.63351563 0 0 Z " fill="#6273A7" transform="translate(395,98)"/>
<path d="M0 0 C0 0.99 0 1.98 0 3 C-1.28650706 3.69710731 -2.57940665 4.38242876 -3.875 5.0625 C-4.95394531 5.63677734 -4.95394531 5.63677734 -6.0546875 6.22265625 C-6.69664063 6.47917969 -7.33859375 6.73570313 -8 7 C-8.66 6.67 -9.32 6.34 -10 6 C-6.7 4.02 -3.4 2.04 0 0 Z " fill="#60A0CC" transform="translate(133,61)"/>
<path d="M0 0 C1.32 0 2.64 0 4 0 C2.38560974 3.22878051 0.29507035 4.70194198 -3 6 C-3.99 5.67 -4.98 5.34 -6 5 C-5.195625 4.731875 -4.39125 4.46375 -3.5625 4.1875 C-2.716875 3.795625 -1.87125 3.40375 -1 3 C-0.67 2.01 -0.34 1.02 0 0 Z " fill="#4E9DD7" transform="translate(230,16)"/>
<path d="M0 0 C0.99 0.33 1.98 0.66 3 1 C2.39816251 3.02045442 1.72693904 5.02111039 1 7 C0.01 7.495 0.01 7.495 -1 8 C-1.66 7.34 -2.32 6.68 -3 6 C-2.01 5.67 -1.02 5.34 0 5 C0 3.35 0 1.7 0 0 Z " fill="#2C3A6B" transform="translate(450,355)"/>
<path d="M0 0 C0.59296875 0.20238281 1.1859375 0.40476563 1.796875 0.61328125 C0.50874158 1.4520658 -0.78375756 2.28414908 -2.078125 3.11328125 C-2.79742187 3.57734375 -3.51671875 4.04140625 -4.2578125 4.51953125 C-6.203125 5.61328125 -6.203125 5.61328125 -8.203125 5.61328125 C-8.203125 4.95328125 -8.203125 4.29328125 -8.203125 3.61328125 C-2.99894173 -0.52640999 -2.99894173 -0.52640999 0 0 Z " fill="#E2F8FD" transform="translate(334.203125,59.38671875)"/>
<path d="M0 0 C0.33 0 0.66 0 1 0 C1.3125 2.8125 1.3125 2.8125 1 6 C-1.3125 7.9375 -1.3125 7.9375 -4 9 C-4.99 8.67 -5.98 8.34 -7 8 C-5.68 7.67 -4.36 7.34 -3 7 C-3 6.34 -3 5.68 -3 5 C-2.34 4.67 -1.68 4.34 -1 4 C-0.34786708 1.97536745 -0.34786708 1.97536745 0 0 Z " fill="#4C5E94" transform="translate(292,56)"/>
<path d="M0 0 C0.99 0.33 1.98 0.66 3 1 C4.1875 4.0625 4.1875 4.0625 5 7 C4.34 7.66 3.68 8.32 3 9 C2.01 6.03 1.02 3.06 0 0 Z " fill="#22346D" transform="translate(302,359)"/>
<path d="M0 0 C1.65 0.99 3.3 1.98 5 3 C3.625 4.5 3.625 4.5 2 6 C1.34 6 0.68 6 0 6 C0 4.02 0 2.04 0 0 Z " fill="#507DB1" transform="translate(153,223)"/>
<path d="M0 0 C0.99 0.495 0.99 0.495 2 1 C2.73075648 3.3140622 3.40138258 5.64828869 4 8 C2.68 7.34 1.36 6.68 0 6 C0 4.02 0 2.04 0 0 Z " fill="#23346D" transform="translate(369,390)"/>
<path d="M0 0 C-6.75 4 -6.75 4 -9 4 C-9 3.01 -9 2.02 -9 1 C-3.375 -1.125 -3.375 -1.125 0 0 Z " fill="#537AAE" transform="translate(375,123)"/>
<path d="M0 0 C2.97 0.495 2.97 0.495 6 1 C3.36095629 2.41377341 0.92879371 3.37240135 -2 4 C-1.34 2.68 -0.68 1.36 0 0 Z " fill="#578BBD" transform="translate(247,101)"/>
</svg>
