<?xml version="1.0" encoding="UTF-8"?>
<svg version="1.1" xmlns="http://www.w3.org/2000/svg" width="507" height="116">
<path d="M0 0 C167.31 0 334.62 0 507 0 C507 38.28 507 76.56 507 116 C339.69 116 172.38 116 0 116 C0 77.72 0 39.44 0 0 Z " fill="#FCFDFD" transform="translate(0,0)"/>
<path d="M0 0 C28 0 28 0 37 4 C42.78573574 10.02680806 43.3532511 13.57243823 43.28125 21.7265625 C42.78606049 27.49001815 40.68084931 30.47923158 36.375 34.375 C34 36 34 36 32 37 C32.53109375 37.30292969 33.0621875 37.60585938 33.609375 37.91796875 C38.95723374 41.0896003 42.56540548 43.91562178 45.25 49.6875 C47.02087661 57.50887168 46.55449402 63.71585398 42.6171875 70.80078125 C38.30918806 76.65924425 32.83869006 78.04608856 26 80 C17.42 80 8.84 80 0 80 C0 53.6 0 27.2 0 0 Z " fill="#10256B" transform="translate(182,5)"/>
<path d="M0 0 C5.61974097 2.87616507 8.83486382 7.46906363 11.265625 13.1796875 C12.36562114 17.4296726 12.46771067 21.37722138 12.4375 25.75 C12.42904053 27.0169873 12.42904053 27.0169873 12.42041016 28.30957031 C12.25002412 37.06505057 11.14006883 44.57435565 4.8359375 51.09375 C-0.9270324 55.83043759 -7.50600365 56.04497212 -14.75 55.84375 C-20.006192 55.26556888 -23.74859774 53.75180547 -27.3984375 49.88671875 C-32.80209376 42.84322461 -33.23896189 35.80274121 -33.25 27.1875 C-33.27449219 26.19298828 -33.29898437 25.19847656 -33.32421875 24.17382812 C-33.35328472 16.79591635 -32.30901398 10.1921637 -27.12451172 4.61791992 C-19.54796417 -2.36763499 -9.64001085 -3.69261433 0 0 Z " fill="#10256A" transform="translate(296.875,30.5)"/>
<path d="M0 0 C5.12318635 4.66779201 6.52760328 9.25797292 8 16 C8 20.29 8 24.58 8 29 C-3.22 29 -14.44 29 -26 29 C-24.85700954 39.14069143 -24.85700954 39.14069143 -19 45 C-12.833268 48.083366 -4.98887213 45.70091751 1.1640625 43.65625 C1.76992188 43.4396875 2.37578125 43.223125 3 43 C4.34516985 45.21557387 5.03406779 46.52130394 4.84765625 49.140625 C4 51 4 51 0.4375 52.75 C-4.06481316 54.0673971 -8.52220232 54.31717237 -13.1875 54.375 C-14.20275757 54.39578613 -14.20275757 54.39578613 -15.23852539 54.41699219 C-20.7062797 54.36606078 -24.64262521 53.02867765 -28.79296875 49.45703125 C-29.48326172 48.64298828 -29.48326172 48.64298828 -30.1875 47.8125 C-30.65542969 47.28269531 -31.12335938 46.75289062 -31.60546875 46.20703125 C-35.87004461 39.45777254 -36.47555863 33.28770747 -36.375 25.5 C-36.38660156 24.60152344 -36.39820313 23.70304687 -36.41015625 22.77734375 C-36.37195654 14.0296092 -34.27640885 7.27640885 -28 1 C-19.49907408 -4.03116024 -8.77081643 -5.14893911 0 0 Z " fill="#0E2369" transform="translate(396,32)"/>
<path d="M0 0 C3.3 0 6.6 0 10 0 C10 9.9 10 19.8 10 30 C13.96 28.02 17.92 26.04 22 24 C28.27590229 23.34321953 32.69748647 23.24944165 38 27 C42.06080478 31.76487889 41.38250802 37.06596435 41.29296875 42.98828125 C41.28872391 44.04661667 41.28447906 45.10495209 41.28010559 46.19535828 C41.26334362 49.56800012 41.22569512 52.94003945 41.1875 56.3125 C41.17244999 58.6022049 41.15876214 60.89191918 41.14648438 63.18164062 C41.11344807 68.78799176 41.06168204 74.3938938 41 80 C38.03 80 35.06 80 32 80 C31.98018066 78.68281982 31.96036133 77.36563965 31.93994141 76.00854492 C31.86394159 71.12748912 31.77521552 66.24673362 31.68261719 61.3659668 C31.64430419 59.25242028 31.60945543 57.13880804 31.578125 55.02514648 C31.53252496 51.9891814 31.47452217 48.95366972 31.4140625 45.91796875 C31.40251129 44.97100632 31.39096008 44.02404388 31.37905884 43.04838562 C31.35918915 42.16769913 31.33931946 41.28701263 31.31884766 40.37963867 C31.30552399 39.60464523 31.29220032 38.82965179 31.2784729 38.03117371 C31.10791565 35.68895197 31.10791565 35.68895197 29 33 C26.57949861 32.48150592 26.57949861 32.48150592 23.8125 32.5625 C22.89082031 32.54316406 21.96914063 32.52382813 21.01953125 32.50390625 C17.08824945 33.14979601 13.86554466 34.20107373 11 37 C9.95249289 40.2494343 10.04510523 43.40561744 10.09765625 46.796875 C10.07921913 48.22003021 10.07921913 48.22003021 10.06040955 49.67193604 C10.028646 52.69874133 10.04496609 55.72311789 10.0625 58.75 C10.04939314 60.80340809 10.03315438 62.85679875 10.01367188 64.91015625 C9.97278747 69.94062337 9.97501799 74.96944613 10 80 C6.7 80 3.4 80 0 80 C0 53.6 0 27.2 0 0 Z " fill="#0C236C" transform="translate(465,5)"/>
<path d="M0 0 C1.94140625 1.16796875 1.94140625 1.16796875 2.94140625 4.16796875 C1.50390625 6.85546875 1.50390625 6.85546875 -0.05859375 9.16796875 C-1.07566406 8.73484375 -1.07566406 8.73484375 -2.11328125 8.29296875 C-8.4556468 5.76305008 -14.2054293 3.94590096 -21.05859375 5.16796875 C-24.16191531 6.51778748 -26.5057937 8.06236865 -28.05859375 11.16796875 C-28.61079576 16.80042927 -27.60542053 20.77882363 -24.05859375 25.16796875 C-21.29238078 27.32041381 -18.31612614 28.98705743 -15.24609375 30.66796875 C-6.48462972 35.53625132 1.80451736 41.14112747 4.94140625 51.16796875 C6.11267309 58.63479487 4.05745703 65.44371938 0.37890625 71.91796875 C-6.61314604 78.37217087 -13.54049086 79.81977326 -22.78417969 79.70214844 C-28.76620233 79.43740984 -33.77652963 78.04594242 -39.05859375 75.16796875 C-39.71859375 74.83796875 -40.37859375 74.50796875 -41.05859375 74.16796875 C-40.18359375 68.41796875 -40.18359375 68.41796875 -39.05859375 66.16796875 C-38.39859375 66.43609375 -37.73859375 66.70421875 -37.05859375 66.98046875 C-36.06859375 67.37234375 -35.07859375 67.76421875 -34.05859375 68.16796875 C-33.465625 68.43222656 -32.87265625 68.69648437 -32.26171875 68.96875 C-26.42371939 71.43238573 -20.92018937 72.45958306 -14.78125 70.40625 C-10.77330813 68.58915717 -10.77330813 68.58915717 -7.859375 65.39453125 C-5.84930309 59.80555082 -6.1833405 53.27653339 -8.43359375 47.85546875 C-13.01431767 43.16567997 -18.40990318 39.78976057 -23.98046875 36.37890625 C-30.73652114 32.23397681 -37.01747961 28.33242531 -39.05859375 20.16796875 C-39.69215778 14.4561453 -39.64053542 9.59510741 -36.40234375 4.703125 C-27.23219408 -5.77323785 -11.98124861 -4.66036645 0 0 Z " fill="#11256B" transform="translate(43.05859375,6.83203125)"/>
<path d="M0 0 C3.3 0 6.6 0 10 0 C12.81455808 7.24002077 15.19146532 14.60453783 17.5625 22 C17.96146484 23.23234375 18.36042969 24.4646875 18.77148438 25.734375 C20.71656464 31.78717902 22.56735856 37.80479377 24 44 C24.1858667 43.27111572 24.3717334 42.54223145 24.56323242 41.79125977 C28.14215001 27.78771074 31.76944949 13.82239775 36 0 C39.3 0 42.6 0 46 0 C44.08512391 7.99471098 41.90577067 15.85301329 39.41796875 23.6875 C39.08130692 24.75186279 38.74464508 25.81622559 38.39778137 26.9128418 C37.68968709 29.1453468 36.97951368 31.37719334 36.26733398 33.60839844 C35.19115915 36.98850713 34.12961334 40.37299416 33.06835938 43.7578125 C23.73477162 73.23861397 23.73477162 73.23861397 14.90234375 79.01953125 C12.62343068 80.19408398 10.56446671 80.83972083 8 81 C5 77.375 5 77.375 5 74 C6.57421875 72.74609375 6.57421875 72.74609375 8.6875 71.4375 C13.5144882 67.99333226 16.40161083 63.7297448 18 58 C17.45928845 53.13939095 16.01650618 48.64151085 14.453125 44.03125 C14.07350616 42.89520325 14.07350616 42.89520325 13.68621826 41.73620605 C13.15034227 40.1352791 12.61231446 38.535071 12.07226562 36.93554688 C11.26237582 34.53665711 10.45869002 32.1357657 9.65625 29.734375 C6.83579598 21.31782347 3.93614295 12.93929174 0.87402344 4.60742188 C0 2 0 2 0 0 Z " fill="#12276B" transform="translate(53,30)"/>
<path d="M0 0 C3.3 0 6.6 0 10 0 C11.23128773 3.90892347 12.4578483 7.81929847 13.68041992 11.73095703 C14.09520186 13.05588815 14.51117794 14.38044614 14.9284668 15.70458984 C22 38.15309116 22 38.15309116 22 44 C22.66 44 23.32 44 24 44 C23.93296875 43.236875 23.8659375 42.47375 23.796875 41.6875 C24.0825505 36.50139097 25.66962466 31.92535628 27.25 27 C27.8942464 24.94563123 28.53747766 22.89094383 29.1796875 20.8359375 C29.49260742 19.84045898 29.80552734 18.84498047 30.12792969 17.81933594 C31.61103937 13.02455694 32.9450971 8.19134186 34.2734375 3.3515625 C35 1 35 1 36 0 C39.33327842 -0.1424478 42.66453893 -0.04222103 46 0 C43.9478354 6.98926907 41.74063876 13.91395741 39.42578125 20.8203125 C39.09708542 21.80498505 38.76838959 22.78965759 38.42973328 23.8041687 C37.39207844 26.91159003 36.35232634 30.01830473 35.3125 33.125 C34.60337614 35.24734923 33.89439046 37.36974464 33.18554688 39.4921875 C31.45862715 44.66199315 29.72982774 49.83116669 28 55 C24.7 55 21.4 55 18 55 C14.37086965 44.99353472 10.9163985 34.93553444 7.55078125 24.83764648 C6.74023755 22.40823943 5.92486906 19.98048355 5.109375 17.55273438 C4.58824911 15.99228517 4.06740516 14.43174178 3.546875 12.87109375 C3.30523621 12.15336288 3.06359741 11.43563202 2.81463623 10.69615173 C1.63962826 7.15499166 0.62473405 3.68082921 0 0 Z " fill="#12276B" transform="translate(103,30)"/>
<path d="M0 0 C4.35612905 3.02262016 5.67566529 5.97904405 7 11 C7.30153276 14.12978847 7.32485266 17.23248256 7.3125 20.375 C7.32861328 21.18710937 7.34472656 21.99921875 7.36132812 22.8359375 C7.36619789 28.91340521 6.68972081 34.84538346 2.58325195 39.66162109 C-0.49349101 42.26250081 -4.0209926 42.40793212 -7.9375 42.3359375 C-11.56570837 41.74497932 -13.79754615 39.77193568 -16 37 C-20.59621919 29.03322008 -20.12975961 18.13923633 -18.49609375 9.26171875 C-17.49948996 6.23773812 -15.97957138 3.97446423 -14 1.5 C-9.39062042 -0.80468979 -5.04536262 -0.87250632 0 0 Z " fill="#F8FAFB" transform="translate(292,37)"/>
<path d="M0 0 C2.97 0 5.94 0 9 0 C9 5.61 9 11.22 9 17 C14.94 17 20.88 17 27 17 C27 19.31 27 21.62 27 24 C21.06 24 15.12 24 9 24 C9.05116542 28.87606439 9.11424982 33.74899854 9.20751953 38.62402344 C9.23565562 40.28049514 9.2569067 41.93709927 9.27099609 43.59375 C9.29252891 45.98245676 9.33922755 48.36958386 9.390625 50.7578125 C9.39185364 51.49242706 9.39308228 52.22704163 9.39434814 52.98391724 C9.53781043 58.07873329 10.69418233 61.12369608 14 65 C17.03499726 65.72229397 17.03499726 65.72229397 20.25 65.375 C21.32765625 65.32085937 22.4053125 65.26671875 23.515625 65.2109375 C24.74539063 65.10652344 24.74539063 65.10652344 26 65 C26.66 66.98 27.32 68.96 28 71 C22.42124845 74.50260857 15.30021669 73.77406508 9 73 C5.06385094 71.1378029 2.91243037 68.77078147 0.93725586 64.9375 C-0.32945884 60.96742673 -0.24837759 57.33951276 -0.1953125 53.19921875 C-0.19106766 51.9446563 -0.19106766 51.9446563 -0.18673706 50.66474915 C-0.1755832 48.00551774 -0.15048763 45.34662882 -0.125 42.6875 C-0.11496399 40.87956217 -0.10583923 39.07161904 -0.09765625 37.26367188 C-0.07565959 32.84231688 -0.04116294 28.42121642 0 24 C-2.64 24 -5.28 24 -8 24 C-8 22.02 -8 20.04 -8 18 C-5.36 18 -2.72 18 0 18 C0 12.06 0 6.12 0 0 Z " fill="#0E2368" transform="translate(325,13)"/>
<path d="M0 0 C0.495 1.485 0.495 1.485 1 3 C-0.4375 5.6875 -0.4375 5.6875 -2 8 C-2.85464844 7.67902344 -3.70929688 7.35804687 -4.58984375 7.02734375 C-10.0414366 5.38499676 -15.36497477 5.26912773 -21 6 C-24.55423623 8.52897578 -25.63748421 9.91245262 -27 14 C-27.28318838 17.74511744 -27.27760563 21.49536569 -27.3125 25.25 C-27.34150391 26.27480469 -27.37050781 27.29960938 -27.40039062 28.35546875 C-27.45423678 34.79215494 -26.97987431 38.84219442 -23 44 C-18.85401159 47.00397962 -13.90265776 46.49240668 -9 46 C-5.904592 45.21133198 -2.95844411 44.20052804 0 43 C0.66 45.31 1.32 47.62 2 50 C-3.52579036 53.43826956 -8.7336328 54.40784068 -15.1875 54.4375 C-15.86425781 54.44716797 -16.54101562 54.45683594 -17.23828125 54.46679688 C-22.68638446 54.37599515 -26.65725701 53.01608602 -30.79296875 49.45703125 C-31.48326172 48.64298828 -31.48326172 48.64298828 -32.1875 47.8125 C-32.65542969 47.28269531 -33.12335938 46.75289062 -33.60546875 46.20703125 C-37.94546225 39.33841409 -38.49719562 32.99116386 -38.4375 25.0625 C-38.4674707 23.65581055 -38.4674707 23.65581055 -38.49804688 22.22070312 C-38.49305047 15.03087264 -37.22781821 8.62201609 -32.32275391 3.11791992 C-23.81812711 -4.97150637 -10.24078735 -5.02729561 0 0 Z " fill="#11266C" transform="translate(452,32)"/>
<path d="M0 0 C6.60886316 0.16212218 11.25777936 1.38347675 16.1875 5.875 C22.0085923 13.89866777 21.375 22.56470896 21.375 32.3125 C10.155 32.3125 -1.065 32.3125 -12.625 32.3125 C-12.295 35.2825 -11.965 38.2525 -11.625 41.3125 C-12.285 40.9825 -12.945 40.6525 -13.625 40.3125 C-13.625 37.3425 -13.625 34.3725 -13.625 31.3125 C-2.405 31.3125 8.815 31.3125 20.375 31.3125 C19.88 30.3225 19.88 30.3225 19.375 29.3125 C18.88 29.8075 18.88 29.8075 18.375 30.3125 C16.66727642 30.39963831 14.95601351 30.41950007 13.24609375 30.41015625 C11.69438477 30.40532227 11.69438477 30.40532227 10.11132812 30.40039062 C9.02271484 30.39201172 7.93410156 30.38363281 6.8125 30.375 C5.1737793 30.36823242 5.1737793 30.36823242 3.50195312 30.36132812 C0.79291505 30.34949826 -1.91601599 30.33301543 -4.625 30.3125 C-4.295 29.3225 -3.965 28.3325 -3.625 27.3125 C-6.925 26.9825 -10.225 26.6525 -13.625 26.3125 C-13.091005 19.26376601 -12.56169293 14.02894096 -7.125 9 C-2.35708398 6.70118335 2.13778911 6.49887761 7.375 6.3125 C7.045 4.9925 6.715 3.6725 6.375 2.3125 C2.085 2.3125 -2.205 2.3125 -6.625 2.3125 C-4.16503225 -0.14746775 -3.38881446 0.01573753 0 0 Z " fill="#1D3171" transform="translate(382.625,28.6875)"/>
<path d="M0 0 C16.24137931 0 16.24137931 0 21 3 C24.99806825 7.10328057 26.11275444 10.64197954 26.375 16.25 C26.28821251 21.50932162 24.63620823 25.20337082 21 29 C14.74927134 33.39320081 7.40132744 32 0 32 C0 21.44 0 10.88 0 0 Z " fill="#FAFBFD" transform="translate(192,46)"/>
<path d="M0 0 C16.65714286 0 16.65714286 0 22.4375 5.1875 C24.47806967 8.86052541 24.63126339 11.94073671 24 16 C22.73348419 20.03701914 20.95194053 22.36926631 17.625 24.875 C13 27 13 27 0 27 C0 18.09 0 9.18 0 0 Z " fill="#FAFBFD" transform="translate(192,12)"/>
<path d="M0 0 C2.97 0 5.94 0 9 0 C9 18.15 9 36.3 9 55 C6.03 55 3.06 55 0 55 C0 36.85 0 18.7 0 0 Z " fill="#0B2167" transform="translate(241,30)"/>
<path d="M0 0 C1.98 0 3.96 0 6 0 C6.33 10.56 6.66 21.12 7 32 C6.34 32 5.68 32 5 32 C5 32.99 5 33.98 5 35 C5.66 35.33 6.32 35.66 7 36 C6.67 49.53 6.34 63.06 6 77 C4.02 77 2.04 77 0 77 C0 51.59 0 26.18 0 0 Z " fill="#08206B" transform="translate(467,7)"/>
<path d="M0 0 C3.3 0 6.6 0 10 0 C10 9.9 10 19.8 10 30 C12.97 28.35 15.94 26.7 19 25 C22.0625 25.6875 22.0625 25.6875 24 27 C24 27.99 24 28.98 24 30 C24.66 30.66 25.32 31.32 26 32 C25.33613281 32.10957031 24.67226563 32.21914063 23.98828125 32.33203125 C23.10527344 32.49058594 22.22226562 32.64914063 21.3125 32.8125 C20.44238281 32.96332031 19.57226562 33.11414062 18.67578125 33.26953125 C15.41028941 34.16098669 13.58794712 34.75654543 11 37 C10.21026794 40.21427465 10.27895467 43.40264319 10.29296875 46.69921875 C10.27784744 47.64940384 10.26272614 48.59958893 10.24714661 49.5785675 C10.20413926 52.61511728 10.19541902 55.65067552 10.1875 58.6875 C10.16436584 60.74546931 10.13900278 62.80341486 10.11132812 64.86132812 C10.04834686 69.90764023 10.01611345 74.95332935 10 80 C6.7 80 3.4 80 0 80 C0 53.6 0 27.2 0 0 Z M2 2 C2 27.41 2 52.82 2 79 C3.98 79 5.96 79 8 79 C8.33 65.14 8.66 51.28 9 37 C8.34 37 7.68 37 7 37 C7 36.01 7 35.02 7 34 C7.66 34 8.32 34 9 34 C8.67 23.44 8.34 12.88 8 2 C6.02 2 4.04 2 2 2 Z " fill="#1B2C64" transform="translate(465,5)"/>
<path d="M0 0 C4.36969581 2.30851854 5.75661434 3.51322869 8 8 C8 11.3 8 14.6 8 18 C0.08 18 -7.84 18 -16 18 C-16 8.4 -16 8.4 -13 4 C-8.70146264 0.28762682 -5.6468782 -0.80669689 0 0 Z " fill="#F6F8FA" transform="translate(386,36)"/>
<path d="M0 0 C0.33 0 0.66 0 1 0 C1 9.9 1 19.8 1 30 C3.97 28.35 6.94 26.7 10 25 C13.0625 25.6875 13.0625 25.6875 15 27 C15 27.99 15 28.98 15 30 C15.66 30.66 16.32 31.32 17 32 C16.33613281 32.10957031 15.67226563 32.21914063 14.98828125 32.33203125 C13.66376953 32.56986328 13.66376953 32.56986328 12.3125 32.8125 C11.44238281 32.96332031 10.57226562 33.11414062 9.67578125 33.26953125 C6.41028941 34.16098669 4.58794712 34.75654543 2 37 C1.21026794 40.21427465 1.27895467 43.40264319 1.29296875 46.69921875 C1.27784744 47.64940384 1.26272614 48.59958893 1.24714661 49.5785675 C1.20413926 52.61511728 1.19541902 55.65067552 1.1875 58.6875 C1.16436584 60.74546931 1.13900278 62.80341486 1.11132812 64.86132812 C1.04834686 69.90764023 1.01611345 74.95332935 1 80 C0.67 80 0.34 80 0 80 C0 65.81 0 51.62 0 37 C-0.66 37 -1.32 37 -2 37 C-2 36.01 -2 35.02 -2 34 C-1.34 34 -0.68 34 0 34 C0 22.78 0 11.56 0 0 Z " fill="#2E3F75" transform="translate(474,5)"/>
<path d="M0 0 C0.33 0.99 0.66 1.98 1 3 C-0.4375 5.6875 -0.4375 5.6875 -2 8 C-2.78375 7.690625 -3.5675 7.38125 -4.375 7.0625 C-8.89851578 5.73664193 -13.31431814 5.35188915 -18 5 C-18.66 3.35 -19.32 1.7 -20 0 C-23.86648272 1.04097612 -27.49461443 2.03698408 -31 4 C-30.04407385 1.59026951 -29.46868673 0.27070699 -27.1875 -1.046875 C-18.12699015 -3.95918174 -8.75693997 -4.29886144 0 0 Z " fill="#172A6C" transform="translate(452,32)"/>
<path d="M0 0 C0.33 0 0.66 0 1 0 C1 15.18 1 30.36 1 46 C-1.97 46 -4.94 46 -8 46 C-8.33 31.15 -8.66 16.3 -9 1 C-8.34 1 -7.68 1 -7 1 C-6.09791877 3.7062437 -5.87772401 5.23850986 -5.88647461 8.01245117 C-5.88658791 9.2133564 -5.88658791 9.2133564 -5.88670349 10.43852234 C-5.89186478 11.29798965 -5.89702606 12.15745697 -5.90234375 13.04296875 C-5.9037587 13.9265657 -5.90517365 14.81016266 -5.90663147 15.72053528 C-5.91222931 18.54289128 -5.92478139 21.36516797 -5.9375 24.1875 C-5.94251528 26.10091031 -5.94707814 28.01432187 -5.95117188 29.92773438 C-5.96219803 34.61852014 -5.97946117 39.30924663 -6 44 C-4.02 44 -2.04 44 0 44 C0 29.48 0 14.96 0 0 Z " fill="#0E215D" transform="translate(505,39)"/>
<path d="M0 0 C1.875 1.25 1.875 1.25 3 3 C3.4375 5.5 3.4375 5.5 3 8 C0.72733157 10.5348994 -0.67674876 10.96041822 -4.0625 11.375 C-7 11 -7 11 -8.875 9.875 C-10.54663625 7.08893958 -10.46376624 5.18011138 -10 2 C-6.95385927 -1.63193703 -4.33992064 -1.29274232 0 0 Z " fill="#4EABE7" transform="translate(249,12)"/>
<path d="M0 0 C7.75763201 -0.47254611 14.31335477 -0.35187837 21 4 C21.33 4.66 21.66 5.32 22 6 C19.36 5.67 16.72 5.34 14 5 C13.01 6.485 13.01 6.485 12 8 C9.8359375 8.29296875 9.8359375 8.29296875 7.375 8.1875 C6.55773437 8.16042969 5.74046875 8.13335937 4.8984375 8.10546875 C4.27195312 8.07066406 3.64546875 8.03585938 3 8 C3 7.67 3 7.34 3 7 C4.98 6.67 6.96 6.34 9 6 C9.33 4.68 9.66 3.36 10 2 C6.37 2 2.74 2 -1 2 C-0.67 1.34 -0.34 0.68 0 0 Z " fill="#283872" transform="translate(280,29)"/>
<path d="M0 0 C4.875 2.625 4.875 2.625 6 6 C5.01 6.495 5.01 6.495 4 7 C3.67 7.99 3.34 8.98 3 10 C-2.66153846 8.52307692 -2.66153846 8.52307692 -4.375 5.875 C-4.58125 5.25625 -4.7875 4.6375 -5 4 C-3.35 2.68 -1.7 1.36 0 0 Z " fill="#0B2067" transform="translate(424,73)"/>
<path d="M0 0 C-0.66 0.66 -1.32 1.32 -2 2 C-2.99 2 -3.98 2 -5 2 C-5 2.66 -5 3.32 -5 4 C-6.49609375 5.21875 -6.49609375 5.21875 -8.4375 6.5 C-11.22531847 8.2865363 -11.22531847 8.2865363 -13 11 C-13.07065617 13.04055005 -13.08421976 15.08334257 -13.0625 17.125 C-13.04896484 18.76855469 -13.04896484 18.76855469 -13.03515625 20.4453125 C-13.02355469 21.28835937 -13.01195312 22.13140625 -13 23 C-13.99 22.67 -14.98 22.34 -16 22 C-16.41516375 16.2684338 -16.61347802 11.44375079 -13.3359375 6.5390625 C-9.70045393 2.35081535 -5.79311448 -0.87774462 0 0 Z " fill="#26366F" transform="translate(20,5)"/>
<path d="M0 0 C1.875 1.25 1.875 1.25 3 3 C3.4375 5.5 3.4375 5.5 3 8 C0.72733157 10.5348994 -0.67674876 10.96041822 -4.0625 11.375 C-7 11 -7 11 -8.875 9.875 C-10.54663625 7.08893958 -10.46376624 5.18011138 -10 2 C-6.95385927 -1.63193703 -4.33992064 -1.29274232 0 0 Z M-7 1 C-9.30671915 3.71549154 -9.30671915 3.71549154 -8.625 6.1875 C-8.41875 6.785625 -8.2125 7.38375 -8 8 C-4.59679066 8.67673447 -4.59679066 8.67673447 -1 9 C1.28728734 7.16116119 1.28728734 7.16116119 1.125 4.375 C1.08375 3.59125 1.0425 2.8075 1 2 C-1.78863007 0.60568496 -3.92078868 0.74339906 -7 1 Z " fill="#72B2DA" transform="translate(249,12)"/>
<path d="M0 0 C0.66 0 1.32 0 2 0 C3.0625 1.75 3.0625 1.75 4 4 C3.67 5.32 3.34 6.64 3 8 C0.03 8.66 -2.94 9.32 -6 10 C-1.375 6 -1.375 6 2 6 C2 5.01 2 4.02 2 3 C0.68 2.67 -0.64 2.34 -2 2 C-1.34 1.34 -0.68 0.68 0 0 Z " fill="#1D2D63" transform="translate(397,75)"/>
<path d="M0 0 C0 0.33 0 0.66 0 1 C-0.78503906 1.10957031 -1.57007813 1.21914063 -2.37890625 1.33203125 C-8.39068055 2.2393297 -13.55628269 3.27814134 -19 6 C-19.99 6.495 -19.99 6.495 -21 7 C-20.04407385 4.59026951 -19.46868673 3.27070699 -17.1875 1.953125 C-11.34273584 0.0744508 -6.12110164 -0.34503078 0 0 Z " fill="#2D3D70" transform="translate(442,29)"/>
<path d="M0 0 C0.66 0 1.32 0 2 0 C2.48275862 6.27586207 2.48275862 6.27586207 0.375 9.4375 C-2.63742658 11.41935959 -4.45768939 11.38503376 -8 11 C-8.66 10.67 -9.32 10.34 -10 10 C-9.67 9.34 -9.34 8.68 -9 8 C-7.6078125 8.061875 -7.6078125 8.061875 -6.1875 8.125 C-2.84190281 8.27136339 -2.84190281 8.27136339 0 6 C0.2502157 2.91634129 0.2502157 2.91634129 0 0 Z " fill="#E7FAFE" transform="translate(251,14)"/>
<path d="M0 0 C0.66 0 1.32 0 2 0 C2.66 2.31 3.32 4.62 4 7 C-1.75 10 -1.75 10 -4 10 C-4 9.34 -4 8.68 -4 8 C-2.68 8 -1.36 8 0 8 C0 5.36 0 2.72 0 0 Z " fill="#2C396E" transform="translate(450,75)"/>
<path d="M0 0 C0.66 0 1.32 0 2 0 C4.3992233 4.64849515 4.19957409 8.91086074 4 14 C3.67 14 3.34 14 3 14 C2.87625 12.906875 2.7525 11.81375 2.625 10.6875 C2.24535199 6.92618198 2.24535199 6.92618198 0 4 C0 2.68 0 1.36 0 0 Z " fill="#48568B" transform="translate(44,53)"/>
<path d="M0 0 C3.3 0 6.6 0 10 0 C10 0.66 10 1.32 10 2 C5.545 2.495 5.545 2.495 1 3 C0.67 2.01 0.34 1.02 0 0 Z " fill="#324175" transform="translate(53,30)"/>
<path d="M0 0 C1.32 1.32 2.64 2.64 4 4 C3.67 4.99 3.34 5.98 3 7 C1.2925002 5.71937515 -0.37373596 4.38232443 -2 3 C-2 2.34 -2 1.68 -2 1 C-1.34 0.67 -0.68 0.34 0 0 Z " fill="#1E306B" transform="translate(30,46)"/>
<path d="M0 0 C0.33 0 0.66 0 1 0 C1.125 7.75 1.125 7.75 0 10 C-0.66 10 -1.32 10 -2 10 C-1.34 6.7 -0.68 3.4 0 0 Z " fill="#2D3D74" transform="translate(86,40)"/>
<path d="M0 0 C0.66 0.33 1.32 0.66 2 1 C2 2.65 2 4.3 2 6 C0.02 6.99 0.02 6.99 -2 8 C-1.34 5.36 -0.68 2.72 0 0 Z " fill="#66AAD6" transform="translate(250,14)"/>
</svg>
